<svg width="21" height="33" viewBox="0 0 21 33" fill="none" xmlns="http://www.w3.org/2000/svg">
<path d="M10.3862 12.5196C11.5335 12.5196 12.4635 11.5854 12.4635 10.433C12.4635 9.28059 11.5335 8.34639 10.3862 8.34639C9.239 8.34639 8.30898 9.28059 8.30898 10.433C8.30898 11.5854 9.239 12.5196 10.3862 12.5196Z" fill="#40A083"/>
<path d="M10.3862 0C4.65952 0 0 4.4764 0 9.97654C0 12.5959 1.18857 16.0792 3.53262 20.33C5.41512 23.7429 7.59298 26.8291 8.72573 28.3647C8.91714 28.6271 9.16741 28.8404 9.45624 28.9875C9.74507 29.1346 10.0643 29.2113 10.3882 29.2113C10.712 29.2113 11.0313 29.1346 11.3201 28.9875C11.6089 28.8404 11.8592 28.6271 12.0506 28.3647C13.1814 26.8291 15.3612 23.7429 17.2437 20.33C19.5839 16.0805 20.7725 12.5972 20.7725 9.97654C20.7725 4.4764 16.1129 0 10.3862 0ZM10.3862 14.6062C9.56455 14.6062 8.76132 14.3614 8.07812 13.9029C7.39492 13.4443 6.86242 12.7926 6.54798 12.03C6.23354 11.2674 6.15126 10.4284 6.31157 9.61884C6.47187 8.80932 6.86754 8.06572 7.44856 7.48209C8.02958 6.89846 8.76984 6.501 9.57573 6.33998C10.3816 6.17895 11.217 6.2616 11.9761 6.57746C12.7352 6.89332 13.3841 7.42821 13.8406 8.11448C14.2971 8.80076 14.5407 9.60761 14.5407 10.433C14.5395 11.5394 14.1014 12.6002 13.3226 13.3825C12.5437 14.1649 11.4877 14.605 10.3862 14.6062Z" fill="#40A083"/>
<circle cx="10.3862" cy="10.3862" r="8.87157" fill="white"/>
<mask id="mask0_183_852" style="mask-type:alpha" maskUnits="userSpaceOnUse" x="1" y="1" width="19" height="19">
<circle cx="10.3862" cy="10.3862" r="8.87157" fill="#C4C4C4"/>
</mask>
<g mask="url(#mask0_183_852)">
<path d="M16.0591 9.02591C15.2726 9.73311 15.2726 10.7785 16.0591 11.486V18.7612C16.0591 19.0356 15.8275 19.2581 15.5417 19.2581H5.06135C4.77559 19.2581 4.54395 19.0356 4.54395 18.7612V11.486C5.33043 10.7785 5.33043 9.73342 4.54395 9.02591V8.48875C4.54395 7.26745 5.31548 6.12825 6.60755 5.44133L9.59377 3.85425C10.0341 3.6202 10.5689 3.6202 11.0093 3.85425L13.9955 5.44133C15.2875 6.12822 16.0591 7.26745 16.0591 8.48875V9.02591Z" fill="#40A083"/>
<path d="M10.595 10.5665H9.70559C9.28193 10.5665 8.93848 10.2364 8.93848 9.82929V8.59082H11.3621V9.82929C11.3621 10.2364 11.0187 10.5665 10.595 10.5665Z" fill="#FED2A4"/>
<path d="M10.3453 7.4043H9.95535C9.39374 7.4043 8.93848 7.76445 8.93848 8.20874V8.58968H11.3621V8.20874C11.3621 7.76445 10.9069 7.4043 10.3453 7.4043V7.4043Z" fill="#F3F3F3"/>
<path d="M11.7511 15.0896H8.64551V10.8435L9.41971 10.4072H10.9737L11.7511 10.8435V15.0896Z" fill="#F3F3F3"/>
<path d="M12.6709 12.8225H13.2916C13.5099 12.8225 13.6869 12.6204 13.6869 12.3711V9.94005C13.6869 9.84858 13.622 9.77441 13.5419 9.77441H12.816C12.7359 9.77441 12.6709 9.84856 12.6709 9.94005V12.8225Z" fill="#F3F3F3"/>
<path fill-rule="evenodd" clip-rule="evenodd" d="M8.19984 15.0909H7.25195V12.6341C7.25195 11.9931 7.64025 11.3949 8.28548 11.0419L8.64592 10.8447V15.0909H8.59927V12.4837L8.39554 12.6617C8.32461 12.7236 8.25925 12.7941 8.19984 12.8714V15.0909Z" fill="#F3F3F3"/>
<path d="M12.6703 12.8221L11.6543 12.3581V10.79L12.6703 11.6034V12.8221Z" fill="#F3F3F3"/>
<path d="M13.5486 9.78242H12.6714V9.11468C12.6714 9.00957 12.6554 8.29625 12.801 8.43864C12.9466 8.58103 12.801 9.0082 13.354 8.9244C13.5486 8.94777 13.5486 9.0096 13.5486 9.11468L13.5486 9.78242Z" fill="#FED2A4"/>
<path d="M15.0446 15.6172V15.7848C15.0446 16.2064 14.8203 16.5479 14.5435 16.5479H6.06259C5.78579 16.5479 5.56152 16.2064 5.56152 15.7848V15.6172C5.56152 15.196 5.78579 14.8545 6.06259 14.8545H14.5435C14.8203 14.8545 15.0446 15.196 15.0446 15.6172V15.6172Z" fill="#1C737A"/>
<path d="M14.3657 16.5479H6.2373L6.91467 17.5639H13.6883L14.3657 16.5479Z" fill="#1C737A"/>
<path d="M13.6877 19.2579H6.91987L6.91406 17.5645H13.6752L13.6877 19.2579Z" fill="#1C737A"/>
</g>
<path d="M2.8324 7.75358L2.80355 7.75363L2.80368 7.82281L2.85274 7.77404L2.8324 7.75358ZM3.09229 7.51069L3.1127 7.49029L3.11269 7.49029L3.09229 7.51069ZM2.84942 7.77056L2.82896 7.75022L2.78019 7.79929L2.84937 7.79941L2.84942 7.77056ZM2.85506 7.80895L2.855 7.7801L2.78598 7.78025L2.83457 7.82927L2.85506 7.80895ZM2.83239 7.83159L2.8527 7.8111L2.80369 7.7625L2.80354 7.83153L2.83239 7.83159ZM2.794 7.82599L2.82285 7.82593L2.82273 7.75675L2.77366 7.80552L2.794 7.82599ZM2.53414 8.06885L2.55454 8.04844L2.53414 8.06885ZM2.77701 7.80897L2.79748 7.82931L2.84625 7.78024L2.77706 7.78012L2.77701 7.80897ZM2.77138 7.77057L2.77144 7.79942L2.84046 7.79928L2.79187 7.75026L2.77138 7.77057ZM2.79401 7.74791L2.7737 7.76839L2.82272 7.81699L2.82286 7.74797L2.79401 7.74791ZM2.85274 7.77404C2.92339 7.70381 2.98704 7.6422 3.03348 7.59878C3.05674 7.57702 3.07545 7.56005 3.08849 7.5489C3.09509 7.54324 3.09975 7.5395 3.10259 7.53744C3.10419 7.53628 3.10428 7.53634 3.10339 7.5368C3.10314 7.53693 3.10098 7.53807 3.09769 7.53879C3.09633 7.53908 3.08294 7.54213 3.0719 7.53109L3.11269 7.49029C3.10138 7.47897 3.08748 7.48195 3.08544 7.4824C3.08145 7.48327 3.07838 7.48478 3.07701 7.48548C3.0739 7.48708 3.07095 7.48911 3.06873 7.49072C3.06394 7.49419 3.05786 7.49915 3.05096 7.50507C3.03697 7.51705 3.01752 7.5347 2.99407 7.55663C2.94706 7.60058 2.88297 7.66263 2.81206 7.73311L2.85274 7.77404ZM3.0719 7.53109C3.06086 7.52005 3.0639 7.50665 3.06419 7.50529C3.06491 7.502 3.06606 7.49984 3.06618 7.49959C3.06665 7.4987 3.06669 7.4988 3.06555 7.50039C3.06348 7.50323 3.05974 7.50788 3.05409 7.51449C3.04293 7.52752 3.02596 7.54624 3.00421 7.5695C2.96079 7.61594 2.89918 7.67958 2.82896 7.75022L2.86988 7.7909C2.94036 7.72 3.00241 7.65591 3.04635 7.60891C3.06829 7.58545 3.08594 7.56602 3.09792 7.55202C3.10382 7.54512 3.1088 7.53904 3.11226 7.53425C3.11387 7.53203 3.1159 7.52908 3.1175 7.52597C3.1182 7.5246 3.11971 7.52154 3.12058 7.51755C3.12103 7.51549 3.12401 7.5016 3.1127 7.49029L3.0719 7.53109ZM2.84937 7.79941C3.01204 7.7997 3.15775 7.80194 3.26266 7.80537C3.31517 7.80709 3.35716 7.8091 3.38584 7.81129C3.4003 7.81239 3.41074 7.8135 3.41728 7.81452C3.42074 7.81507 3.42195 7.81542 3.4218 7.81537C3.42167 7.81533 3.42123 7.81519 3.42058 7.81491C3.41999 7.81466 3.41878 7.81412 3.41729 7.81317C3.41643 7.81263 3.40464 7.80544 3.40464 7.78976H3.46234C3.46234 7.77345 3.45005 7.76562 3.44819 7.76445C3.44457 7.76215 3.44106 7.76094 3.43922 7.76036C3.43513 7.75907 3.43046 7.75819 3.42623 7.75752C3.41736 7.75613 3.40507 7.75489 3.39022 7.75376C3.36029 7.75147 3.31733 7.74943 3.26454 7.7477C3.15885 7.74424 3.01252 7.742 2.84947 7.74171L2.84937 7.79941ZM3.40464 7.78976C3.40464 7.77417 3.41632 7.76697 3.41723 7.76639C3.41873 7.76544 3.41994 7.76489 3.42055 7.76463C3.4212 7.76435 3.42165 7.76421 3.42179 7.76416C3.42197 7.7641 3.42081 7.76445 3.41738 7.76499C3.41094 7.76601 3.40063 7.7671 3.38633 7.7682C3.35798 7.77038 3.31645 7.77238 3.26447 7.77409C3.16063 7.77752 3.01634 7.77977 2.855 7.7801L2.85512 7.83781C3.01684 7.83747 3.16176 7.83522 3.26638 7.83176C3.31862 7.83004 3.36113 7.828 3.39074 7.82573C3.40544 7.82461 3.4176 7.82337 3.42639 7.82198C3.43059 7.82132 3.43522 7.82044 3.4393 7.81914C3.44114 7.81856 3.44465 7.81735 3.44826 7.81504C3.45017 7.81383 3.46234 7.806 3.46234 7.78976H3.40464ZM2.83457 7.82927C2.90477 7.90008 2.96597 7.964 3.00879 8.01083C3.03025 8.0343 3.04682 8.05316 3.05752 8.06633C3.06297 8.07303 3.06637 8.07761 3.06811 8.08027C3.0691 8.0818 3.06878 8.08153 3.06819 8.0801C3.06796 8.07951 3.06691 8.0769 3.06662 8.0731C3.06634 8.06963 3.06635 8.05968 3.07474 8.05129L3.11555 8.09209C3.12431 8.08333 3.12447 8.07281 3.12413 8.06855C3.12377 8.06396 3.12245 8.06035 3.12173 8.05857C3.12018 8.05473 3.11807 8.05126 3.11647 8.0488C3.11303 8.04351 3.10807 8.03703 3.10229 8.02992C3.09051 8.01545 3.07307 7.99562 3.05137 7.97189C3.00786 7.9243 2.94608 7.85979 2.87555 7.78864L2.83457 7.82927ZM3.07474 8.05129C3.08314 8.04289 3.09308 8.04288 3.09655 8.04316C3.10035 8.04346 3.10297 8.04451 3.10355 8.04475C3.10499 8.04532 3.10526 8.04564 3.10373 8.04465C3.10105 8.04291 3.09649 8.03951 3.08978 8.03406C3.07662 8.02336 3.05775 8.0068 3.03427 7.98533C2.98745 7.94251 2.92352 7.8813 2.8527 7.8111L2.81208 7.85208C2.88324 7.92262 2.94775 7.9844 2.99534 8.02792C3.01907 8.04961 3.0389 8.06706 3.05337 8.07883C3.06048 8.08461 3.06696 8.08957 3.07226 8.09301C3.07471 8.09461 3.07819 8.09674 3.08201 8.09827C3.08381 8.099 3.08742 8.10031 3.092 8.10068C3.09627 8.10101 3.10679 8.10085 3.11555 8.09209L3.07474 8.05129ZM2.80354 7.83153C2.80321 7.99288 2.80096 8.13717 2.79753 8.24102C2.79582 8.29301 2.79381 8.33453 2.79164 8.36289C2.79054 8.37719 2.78945 8.3875 2.78843 8.39394C2.78789 8.39737 2.78754 8.39853 2.7876 8.39835C2.78764 8.39821 2.78779 8.39776 2.78807 8.39711C2.78832 8.3965 2.78888 8.39529 2.78983 8.39379C2.79041 8.39289 2.79761 8.3812 2.8132 8.3812V8.4389C2.82944 8.4389 2.83726 8.42672 2.83847 8.42482C2.84078 8.42121 2.842 8.41769 2.84258 8.41586C2.84388 8.41178 2.84476 8.40715 2.84542 8.40296C2.84681 8.39417 2.84804 8.382 2.84917 8.36731C2.85144 8.33769 2.85348 8.29517 2.8552 8.24292C2.85866 8.1383 2.86091 7.99337 2.86124 7.83165L2.80354 7.83153ZM2.8132 8.3812C2.82888 8.3812 2.83607 8.39299 2.83661 8.39385C2.83755 8.39534 2.8381 8.39655 2.83835 8.39714C2.83862 8.39779 2.83877 8.39823 2.83881 8.39836C2.83886 8.39851 2.8385 8.3973 2.83796 8.39384C2.83693 8.3873 2.83583 8.37687 2.83473 8.3624C2.83254 8.33372 2.83053 8.29174 2.82881 8.23922C2.82538 8.13431 2.82314 7.9886 2.82285 7.82593L2.76515 7.82604C2.76544 7.98908 2.76768 8.13541 2.77114 8.2411C2.77287 8.29389 2.77491 8.33685 2.77719 8.36679C2.77833 8.38164 2.77956 8.39393 2.78096 8.40279C2.78162 8.40702 2.7825 8.41169 2.7838 8.41578C2.78438 8.41762 2.78559 8.42113 2.78788 8.42476C2.78906 8.42661 2.79689 8.4389 2.8132 8.4389V8.3812ZM2.77366 7.80552C2.70302 7.87574 2.63938 7.93734 2.59295 7.98076C2.56969 8.00251 2.55097 8.01948 2.53795 8.03064C2.53134 8.03629 2.52669 8.04002 2.52384 8.04209C2.52225 8.04325 2.52216 8.04319 2.52305 8.04273C2.5233 8.0426 2.52546 8.04146 2.52875 8.04075C2.5301 8.04045 2.5435 8.0374 2.55454 8.04844L2.51374 8.08924C2.52506 8.10055 2.53894 8.09757 2.541 8.09713C2.54499 8.09626 2.54806 8.09475 2.54942 8.09405C2.55254 8.09245 2.55548 8.09042 2.55771 8.08881C2.56249 8.08534 2.56857 8.08038 2.57547 8.07446C2.58947 8.06248 2.6089 8.04484 2.63236 8.02291C2.67936 7.97896 2.74344 7.91692 2.81434 7.84645L2.77366 7.80552ZM2.55454 8.04844C2.56558 8.05948 2.56254 8.07288 2.56224 8.07423C2.56153 8.07752 2.56038 8.07968 2.56025 8.07993C2.5598 8.08083 2.55974 8.08073 2.56089 8.07915C2.56295 8.0763 2.56669 8.07164 2.57235 8.06504C2.58351 8.05201 2.60047 8.03329 2.62223 8.01003C2.66565 7.96359 2.72725 7.89995 2.79748 7.82931L2.75655 7.78863C2.68607 7.85953 2.62403 7.92361 2.58008 7.97062C2.55815 7.99407 2.5405 8.01351 2.52852 8.0275C2.52261 8.03441 2.51764 8.04049 2.51418 8.04528C2.51256 8.0475 2.51053 8.05045 2.50893 8.05356C2.50823 8.05492 2.50672 8.05799 2.50586 8.06198C2.50541 8.06404 2.50242 8.07792 2.51374 8.08924L2.55454 8.04844ZM2.77706 7.78012C2.61439 7.77983 2.46868 7.77759 2.36376 7.77415C2.31123 7.77243 2.26925 7.77043 2.24057 7.76824C2.2261 7.76714 2.21566 7.76603 2.20913 7.76501C2.20566 7.76446 2.20445 7.76411 2.2046 7.76416C2.20474 7.7642 2.20518 7.76434 2.20583 7.76462C2.20642 7.76487 2.20763 7.76541 2.20912 7.76636C2.20997 7.7669 2.22176 7.77409 2.22176 7.78976H2.16406C2.16406 7.80608 2.17636 7.81391 2.17821 7.81508C2.18183 7.81738 2.18535 7.81859 2.18719 7.81917C2.19128 7.82046 2.19594 7.82134 2.20017 7.82201C2.20904 7.8234 2.22133 7.82464 2.23618 7.82577C2.26612 7.82805 2.30908 7.8301 2.36187 7.83182C2.46757 7.83528 2.61391 7.83753 2.77696 7.83782L2.77706 7.78012ZM2.22176 7.78976C2.22176 7.80536 2.21008 7.81256 2.20917 7.81314C2.20768 7.81409 2.20646 7.81464 2.20586 7.8149C2.20521 7.81518 2.20476 7.81532 2.20461 7.81537C2.20443 7.81543 2.2056 7.81508 2.20902 7.81454C2.21546 7.81352 2.22577 7.81243 2.24007 7.81133C2.26843 7.80915 2.30996 7.80715 2.36195 7.80543C2.46579 7.80201 2.61009 7.79976 2.77144 7.79942L2.77132 7.74172C2.6096 7.74206 2.46466 7.74431 2.36004 7.74776C2.30779 7.74949 2.26528 7.75152 2.23566 7.7538C2.22097 7.75492 2.2088 7.75616 2.20001 7.75755C2.19582 7.75821 2.19118 7.75909 2.18711 7.76039C2.18527 7.76097 2.18176 7.76218 2.17814 7.76449C2.17624 7.7657 2.16406 7.77353 2.16406 7.78976H2.22176ZM2.79187 7.75026C2.72167 7.67945 2.66047 7.61553 2.61765 7.5687C2.59619 7.54523 2.57963 7.52637 2.56892 7.5132C2.56347 7.5065 2.56007 7.50193 2.55834 7.49926C2.55734 7.49773 2.55767 7.49799 2.55824 7.49943C2.55848 7.50002 2.55953 7.50263 2.55983 7.50644C2.5601 7.50991 2.56009 7.51984 2.5517 7.52824L2.5109 7.48744C2.50213 7.4962 2.50197 7.50672 2.50231 7.51098C2.50267 7.51557 2.50399 7.51918 2.50471 7.52097C2.50625 7.5248 2.50837 7.52827 2.50997 7.53073C2.51341 7.53602 2.51837 7.5425 2.52416 7.54961C2.53593 7.56408 2.55337 7.58391 2.57507 7.60764C2.61858 7.65523 2.68036 7.71973 2.75089 7.79088L2.79187 7.75026ZM2.5517 7.52824C2.5433 7.53664 2.53336 7.53665 2.52989 7.53637C2.52609 7.53607 2.52348 7.53503 2.52289 7.53479C2.52145 7.53421 2.52119 7.53389 2.52272 7.53488C2.52538 7.53661 2.52995 7.54001 2.53666 7.54546C2.54982 7.55617 2.56868 7.57273 2.59215 7.59419C2.63897 7.637 2.70289 7.6982 2.7737 7.76839L2.81432 7.72742C2.74318 7.65689 2.67867 7.59511 2.63109 7.55161C2.60736 7.52991 2.58753 7.51247 2.57307 7.5007C2.56595 7.49492 2.55948 7.48996 2.55418 7.48651C2.55173 7.48492 2.54826 7.4828 2.54442 7.48126C2.54263 7.48054 2.53902 7.47921 2.53443 7.47885C2.53017 7.47852 2.51966 7.47868 2.5109 7.48744L2.5517 7.52824ZM2.82286 7.74797C2.82319 7.58663 2.82544 7.44233 2.82887 7.3385C2.83059 7.28651 2.83259 7.24499 2.83477 7.21663C2.83586 7.20233 2.83696 7.19203 2.83798 7.18559C2.83852 7.18216 2.83886 7.181 2.8388 7.18118C2.83876 7.18132 2.83861 7.18177 2.83833 7.18242C2.83808 7.18302 2.83753 7.18424 2.83658 7.18573C2.83599 7.18665 2.8288 7.19833 2.8132 7.19833V7.14062C2.79697 7.14062 2.78914 7.1528 2.78793 7.1547C2.78562 7.15832 2.78441 7.16184 2.78383 7.16367C2.78253 7.16775 2.78165 7.17238 2.78098 7.17657C2.77959 7.18536 2.77836 7.19753 2.77723 7.21222C2.77496 7.24184 2.77293 7.28435 2.7712 7.33659C2.76775 7.44121 2.76549 7.58613 2.76516 7.74785L2.82286 7.74797ZM2.8132 7.19833C2.79753 7.19833 2.79034 7.18654 2.78979 7.18568C2.78885 7.18419 2.7883 7.18298 2.78805 7.18239C2.78778 7.18174 2.78764 7.1813 2.7876 7.18116C2.78755 7.18102 2.7879 7.18222 2.78844 7.18569C2.78947 7.19223 2.79057 7.20267 2.79168 7.21713C2.79386 7.24581 2.79587 7.2878 2.79759 7.34032C2.80103 7.44524 2.80326 7.59095 2.80355 7.75363L2.86125 7.75352C2.86096 7.59047 2.85872 7.44413 2.85526 7.33843C2.85353 7.28565 2.85149 7.24268 2.84921 7.21274C2.84808 7.19789 2.84684 7.1856 2.84545 7.17673C2.84478 7.1725 2.8439 7.16784 2.8426 7.16375C2.84202 7.16191 2.84082 7.1584 2.83852 7.15477C2.83734 7.15292 2.82952 7.14062 2.8132 7.14062V7.19833Z" fill="#40A083"/>
<path d="M8.4574 2.99283L8.42855 2.99288L8.42868 3.06207L8.47774 3.0133L8.4574 2.99283ZM8.71729 2.74995L8.7377 2.72954L8.73769 2.72954L8.71729 2.74995ZM8.47442 3.00982L8.45396 2.98948L8.40519 3.03855L8.47437 3.03867L8.47442 3.00982ZM8.48006 3.04821L8.48 3.01936L8.41098 3.01951L8.45957 3.06852L8.48006 3.04821ZM8.45739 3.07085L8.4777 3.05036L8.42869 3.00176L8.42854 3.07079L8.45739 3.07085ZM8.419 3.06524L8.44785 3.06519L8.44773 2.99601L8.39866 3.04478L8.419 3.06524ZM8.15914 3.3081L8.17954 3.2877L8.15914 3.3081ZM8.40201 3.04822L8.42248 3.06856L8.47125 3.0195L8.40206 3.01937L8.40201 3.04822ZM8.39638 3.00983L8.39644 3.03868L8.46546 3.03854L8.41687 2.98952L8.39638 3.00983ZM8.41901 2.98716L8.3987 3.00765L8.44772 3.05625L8.44786 2.98722L8.41901 2.98716ZM8.47774 3.0133C8.54839 2.94307 8.61204 2.88146 8.65848 2.83804C8.68174 2.81628 8.70045 2.79931 8.71349 2.78815C8.72009 2.7825 8.72475 2.77876 8.72759 2.7767C8.72919 2.77554 8.72928 2.7756 8.72839 2.77606C8.72814 2.77619 8.72598 2.77733 8.72269 2.77804C8.72133 2.77834 8.70794 2.78138 8.6969 2.77035L8.73769 2.72954C8.72638 2.71823 8.71248 2.72121 8.71044 2.72166C8.70645 2.72253 8.70338 2.72404 8.70201 2.72474C8.6989 2.72634 8.69595 2.72837 8.69373 2.72998C8.68894 2.73345 8.68286 2.73841 8.67596 2.74432C8.66197 2.75631 8.64252 2.77396 8.61907 2.79589C8.57206 2.83984 8.50797 2.90189 8.43706 2.97237L8.47774 3.0133ZM8.6969 2.77035C8.68586 2.75931 8.6889 2.74591 8.68919 2.74455C8.68991 2.74126 8.69106 2.7391 8.69118 2.73885C8.69165 2.73796 8.69169 2.73805 8.69055 2.73964C8.68848 2.74249 8.68474 2.74714 8.67909 2.75375C8.66793 2.76678 8.65096 2.78549 8.62921 2.80876C8.58579 2.8552 8.52418 2.91883 8.45396 2.98948L8.49488 3.03016C8.56536 2.95926 8.62741 2.89517 8.67135 2.84817C8.69329 2.82471 8.71094 2.80527 8.72292 2.79128C8.72882 2.78437 8.7338 2.7783 8.73726 2.77351C8.73887 2.77129 8.7409 2.76834 8.7425 2.76523C8.7432 2.76386 8.74471 2.76079 8.74558 2.75681C8.74603 2.75475 8.74901 2.74086 8.7377 2.72954L8.6969 2.77035ZM8.47437 3.03867C8.63704 3.03896 8.78275 3.0412 8.88766 3.04463C8.94017 3.04635 8.98216 3.04836 9.01084 3.05055C9.0253 3.05165 9.03574 3.05275 9.04228 3.05378C9.04574 3.05433 9.04695 3.05468 9.0468 3.05463C9.04667 3.05459 9.04623 3.05444 9.04558 3.05417C9.04499 3.05392 9.04378 3.05337 9.04229 3.05243C9.04143 3.05189 9.02964 3.0447 9.02964 3.02902H9.08734C9.08734 3.01271 9.07505 3.00488 9.07319 3.0037C9.06957 3.00141 9.06606 3.0002 9.06422 2.99962C9.06013 2.99832 9.05546 2.99744 9.05123 2.99678C9.04236 2.99538 9.03007 2.99415 9.01522 2.99301C8.98529 2.99073 8.94233 2.98869 8.88954 2.98696C8.78385 2.9835 8.63752 2.98126 8.47447 2.98097L8.47437 3.03867ZM9.02964 3.02902C9.02964 3.01343 9.04132 3.00623 9.04223 3.00565C9.04373 3.0047 9.04494 3.00415 9.04555 3.00389C9.0462 3.00361 9.04665 3.00346 9.04679 3.00342C9.04697 3.00336 9.04581 3.00371 9.04238 3.00425C9.03594 3.00527 9.02563 3.00636 9.01133 3.00746C8.98298 3.00963 8.94145 3.01164 8.88947 3.01335C8.78563 3.01678 8.64134 3.01903 8.48 3.01936L8.48012 3.07706C8.64184 3.07673 8.78676 3.07448 8.89138 3.07102C8.94362 3.0693 8.98613 3.06726 9.01574 3.06499C9.03044 3.06386 9.0426 3.06263 9.05139 3.06124C9.05559 3.06058 9.06022 3.0597 9.0643 3.0584C9.06614 3.05782 9.06965 3.0566 9.07326 3.05429C9.07517 3.05308 9.08734 3.04526 9.08734 3.02902H9.02964ZM8.45957 3.06852C8.52977 3.13934 8.59097 3.20326 8.63379 3.25009C8.65525 3.27356 8.67182 3.29242 8.68252 3.30558C8.68797 3.31229 8.69137 3.31687 8.69311 3.31953C8.6941 3.32106 8.69378 3.32079 8.69319 3.31936C8.69296 3.31877 8.69191 3.31615 8.69162 3.31235C8.69134 3.30888 8.69135 3.29894 8.69974 3.29054L8.74055 3.33135C8.74931 3.32259 8.74947 3.31207 8.74913 3.30781C8.74877 3.30322 8.74745 3.29961 8.74673 3.29782C8.74518 3.29399 8.74307 3.29051 8.74147 3.28806C8.73803 3.28276 8.73307 3.27629 8.72729 3.26917C8.71551 3.25471 8.69807 3.23488 8.67637 3.21115C8.63286 3.16356 8.57108 3.09905 8.50055 3.0279L8.45957 3.06852ZM8.69974 3.29054C8.70814 3.28215 8.71808 3.28214 8.72155 3.28242C8.72535 3.28272 8.72797 3.28376 8.72855 3.284C8.72999 3.28458 8.73026 3.2849 8.72873 3.28391C8.72605 3.28217 8.72149 3.27877 8.71478 3.27332C8.70162 3.26262 8.68275 3.24606 8.65927 3.22459C8.61245 3.18177 8.54852 3.12056 8.4777 3.05036L8.43708 3.09133C8.50824 3.16187 8.57275 3.22366 8.62034 3.26717C8.64407 3.28887 8.6639 3.30632 8.67837 3.31809C8.68548 3.32387 8.69196 3.32883 8.69726 3.33227C8.69971 3.33387 8.70319 3.33599 8.70701 3.33753C8.70881 3.33825 8.71242 3.33957 8.717 3.33994C8.72127 3.34027 8.73179 3.34011 8.74055 3.33135L8.69974 3.29054ZM8.42854 3.07079C8.42821 3.23213 8.42596 3.37643 8.42253 3.48028C8.42082 3.53226 8.41881 3.57379 8.41664 3.60215C8.41554 3.61645 8.41445 3.62676 8.41343 3.6332C8.41289 3.63663 8.41254 3.63779 8.4126 3.63761C8.41264 3.63747 8.41279 3.63702 8.41307 3.63637C8.41332 3.63576 8.41388 3.63455 8.41483 3.63305C8.41541 3.63214 8.42261 3.62046 8.4382 3.62046V3.67816C8.45444 3.67816 8.46226 3.66598 8.46347 3.66408C8.46578 3.66047 8.467 3.65695 8.46758 3.65512C8.46888 3.65104 8.46976 3.64641 8.47042 3.64221C8.47181 3.63342 8.47304 3.62126 8.47417 3.60656C8.47644 3.57694 8.47848 3.53443 8.4802 3.48218C8.48366 3.37756 8.48591 3.23263 8.48624 3.0709L8.42854 3.07079ZM8.4382 3.62046C8.45388 3.62046 8.46107 3.63225 8.46161 3.63311C8.46255 3.6346 8.4631 3.63581 8.46335 3.6364C8.46362 3.63705 8.46377 3.63749 8.46381 3.63762C8.46386 3.63777 8.4635 3.63656 8.46296 3.6331C8.46193 3.62656 8.46083 3.61612 8.45973 3.60166C8.45754 3.57298 8.45553 3.53099 8.45381 3.47848C8.45038 3.37357 8.44814 3.22786 8.44785 3.06519L8.39015 3.06529C8.39044 3.22834 8.39268 3.37467 8.39614 3.48036C8.39787 3.53315 8.39991 3.57611 8.40219 3.60604C8.40333 3.62089 8.40456 3.63318 8.40596 3.64205C8.40662 3.64628 8.4075 3.65095 8.4088 3.65504C8.40938 3.65688 8.41059 3.66039 8.41288 3.66402C8.41406 3.66587 8.42189 3.67816 8.4382 3.67816V3.62046ZM8.39866 3.04478C8.32802 3.115 8.26438 3.1766 8.21795 3.22002C8.19469 3.24177 8.17597 3.25874 8.16295 3.2699C8.15634 3.27555 8.15169 3.27928 8.14884 3.28135C8.14725 3.2825 8.14716 3.28245 8.14805 3.28198C8.1483 3.28186 8.15046 3.28072 8.15375 3.28C8.1551 3.27971 8.1685 3.27666 8.17954 3.2877L8.13874 3.3285C8.15006 3.33981 8.16394 3.33683 8.166 3.33639C8.16999 3.33552 8.17306 3.33401 8.17442 3.33331C8.17754 3.3317 8.18048 3.32967 8.18271 3.32807C8.18749 3.3246 8.19357 3.31963 8.20047 3.31372C8.21447 3.30174 8.2339 3.2841 8.25736 3.26216C8.30436 3.21822 8.36844 3.15618 8.43934 3.08571L8.39866 3.04478ZM8.17954 3.2877C8.19058 3.29874 8.18754 3.31213 8.18724 3.31349C8.18653 3.31678 8.18538 3.31894 8.18525 3.31919C8.1848 3.32009 8.18474 3.31999 8.18589 3.3184C8.18795 3.31556 8.19169 3.3109 8.19735 3.3043C8.20851 3.29126 8.22547 3.27255 8.24723 3.24929C8.29065 3.20285 8.35225 3.13921 8.42248 3.06856L8.38155 3.02788C8.31107 3.09879 8.24903 3.16287 8.20508 3.20988C8.18315 3.23333 8.1655 3.25277 8.15352 3.26676C8.14761 3.27367 8.14264 3.27974 8.13918 3.28453C8.13756 3.28675 8.13553 3.28971 8.13393 3.29281C8.13323 3.29418 8.13172 3.29725 8.13086 3.30124C8.13041 3.3033 8.12742 3.31718 8.13874 3.3285L8.17954 3.2877ZM8.40206 3.01937C8.23939 3.01908 8.09368 3.01685 7.98876 3.01341C7.93623 3.01169 7.89425 3.00968 7.86557 3.0075C7.8511 3.00639 7.84066 3.00529 7.83413 3.00426C7.83066 3.00372 7.82945 3.00337 7.8296 3.00342C7.82974 3.00346 7.83018 3.0036 7.83083 3.00387C7.83142 3.00413 7.83263 3.00467 7.83412 3.00561C7.83497 3.00616 7.84676 3.01335 7.84676 3.02902H7.78906C7.78906 3.04534 7.80136 3.05316 7.80321 3.05434C7.80683 3.05664 7.81035 3.05784 7.81219 3.05842C7.81628 3.05972 7.82094 3.0606 7.82517 3.06127C7.83404 3.06266 7.84633 3.0639 7.86118 3.06503C7.89112 3.06731 7.93408 3.06935 7.98687 3.07108C8.09257 3.07454 8.23891 3.07678 8.40196 3.07707L8.40206 3.01937ZM7.84676 3.02902C7.84676 3.04462 7.83508 3.05182 7.83417 3.0524C7.83268 3.05335 7.83146 3.0539 7.83086 3.05415C7.83021 3.05443 7.82976 3.05458 7.82961 3.05463C7.82943 3.05468 7.8306 3.05434 7.83402 3.0538C7.84046 3.05278 7.85077 3.05168 7.86507 3.05059C7.89343 3.04841 7.93496 3.04641 7.98695 3.04469C8.09079 3.04126 8.23509 3.03902 8.39644 3.03868L8.39632 2.98098C8.2346 2.98131 8.08966 2.98357 7.98504 2.98702C7.93279 2.98875 7.89028 2.99078 7.86066 2.99305C7.84597 2.99418 7.8338 2.99541 7.82501 2.9968C7.82082 2.99747 7.81618 2.99835 7.81211 2.99964C7.81027 3.00023 7.80676 3.00144 7.80314 3.00375C7.80124 3.00496 7.78906 3.01279 7.78906 3.02902H7.84676ZM8.41687 2.98952C8.34667 2.91871 8.28547 2.85479 8.24265 2.80796C8.22119 2.78449 8.20463 2.76562 8.19392 2.75246C8.18847 2.74576 8.18507 2.74118 8.18334 2.73852C8.18234 2.73699 8.18267 2.73725 8.18324 2.73869C8.18348 2.73928 8.18453 2.74189 8.18483 2.74569C8.1851 2.74917 8.18509 2.7591 8.1767 2.7675L8.1359 2.7267C8.12713 2.73546 8.12697 2.74598 8.12731 2.75024C8.12767 2.75483 8.12899 2.75844 8.12971 2.76023C8.13125 2.76406 8.13337 2.76753 8.13497 2.76998C8.13841 2.77528 8.14337 2.78176 8.14916 2.78887C8.16093 2.80334 8.17837 2.82317 8.20007 2.8469C8.24358 2.89448 8.30536 2.95899 8.37589 3.03014L8.41687 2.98952ZM8.1767 2.7675C8.1683 2.77589 8.15836 2.7759 8.15489 2.77563C8.15109 2.77533 8.14848 2.77428 8.14789 2.77405C8.14645 2.77347 8.14619 2.77314 8.14772 2.77414C8.15038 2.77587 8.15495 2.77927 8.16166 2.78472C8.17482 2.79543 8.19368 2.81198 8.21715 2.83345C8.26397 2.87626 8.32789 2.93746 8.3987 3.00765L8.43932 2.96667C8.36818 2.89614 8.30367 2.83437 8.25609 2.79086C8.23236 2.76917 8.21253 2.75173 8.19807 2.73996C8.19095 2.73417 8.18448 2.72922 8.17918 2.72577C8.17673 2.72418 8.17326 2.72206 8.16942 2.72051C8.16763 2.71979 8.16402 2.71847 8.15943 2.71811C8.15517 2.71777 8.14466 2.71793 8.1359 2.7267L8.1767 2.7675ZM8.44786 2.98722C8.44819 2.82588 8.45044 2.68159 8.45387 2.57775C8.45559 2.52577 8.45759 2.48425 8.45977 2.45589C8.46086 2.44159 8.46196 2.43128 8.46298 2.42484C8.46352 2.42142 8.46386 2.42025 8.4638 2.42044C8.46376 2.42058 8.46361 2.42103 8.46333 2.42168C8.46308 2.42228 8.46253 2.4235 8.46158 2.42499C8.46099 2.4259 8.4538 2.43758 8.4382 2.43758V2.37988C8.42197 2.37988 8.41414 2.39206 8.41293 2.39396C8.41062 2.39758 8.40941 2.40109 8.40883 2.40293C8.40753 2.407 8.40665 2.41164 8.40598 2.41583C8.40459 2.42462 8.40336 2.43679 8.40223 2.45148C8.39996 2.4811 8.39793 2.52361 8.3962 2.57585C8.39275 2.68047 8.39049 2.82539 8.39016 2.9871L8.44786 2.98722ZM8.4382 2.43758C8.42253 2.43758 8.41534 2.42579 8.41479 2.42494C8.41385 2.42345 8.4133 2.42224 8.41305 2.42165C8.41278 2.421 8.41264 2.42056 8.4126 2.42042C8.41255 2.42027 8.4129 2.42148 8.41344 2.42495C8.41447 2.43148 8.41557 2.44192 8.41668 2.45639C8.41886 2.48507 8.42087 2.52705 8.42259 2.57958C8.42603 2.6845 8.42826 2.83021 8.42855 2.99288L8.48625 2.99278C8.48596 2.82973 8.48372 2.68339 8.48026 2.57769C8.47853 2.5249 8.47649 2.48194 8.47421 2.452C8.47308 2.43715 8.47184 2.42486 8.47045 2.41599C8.46978 2.41176 8.4689 2.4071 8.4676 2.40301C8.46702 2.40117 8.46582 2.39765 8.46352 2.39403C8.46234 2.39218 8.45452 2.37988 8.4382 2.37988V2.43758Z" fill="#40A083"/>
<path d="M5.63794 4.30414L5.61871 4.30418L5.61879 4.3503L5.6515 4.31778L5.63794 4.30414ZM5.8112 4.14222L5.82481 4.12862L5.8248 4.12862L5.8112 4.14222ZM5.64929 4.31547L5.63565 4.30191L5.60313 4.33462L5.64926 4.3347L5.64929 4.31547ZM5.65305 4.34106L5.65301 4.32183L5.60699 4.32192L5.63939 4.3546L5.65305 4.34106ZM5.63794 4.35615L5.65148 4.34249L5.6188 4.31009L5.6187 4.35611L5.63794 4.35615ZM5.61234 4.35241L5.63157 4.35238L5.63149 4.30626L5.59878 4.33877L5.61234 4.35241ZM5.4391 4.51432L5.4527 4.50072L5.4391 4.51432ZM5.60102 4.34107L5.61466 4.35463L5.64717 4.32192L5.60105 4.32183L5.60102 4.34107ZM5.59726 4.31547L5.5973 4.33471L5.64332 4.33461L5.61092 4.30193L5.59726 4.31547ZM5.61235 4.30036L5.59881 4.31402L5.63149 4.34642L5.63158 4.3004L5.61235 4.30036ZM5.6515 4.31778C5.6986 4.27097 5.74103 4.22989 5.77199 4.20094C5.7875 4.18644 5.79998 4.17513 5.80866 4.16769C5.81307 4.16392 5.81617 4.16142 5.81807 4.16005C5.81913 4.15928 5.81919 4.15932 5.8186 4.15962C5.81844 4.15971 5.81699 4.16047 5.8148 4.16095C5.8139 4.16115 5.80497 4.16318 5.79761 4.15582L5.8248 4.12862C5.81726 4.12107 5.808 4.12306 5.80663 4.12336C5.80397 4.12394 5.80193 4.12494 5.80102 4.12541C5.79894 4.12648 5.79698 4.12783 5.7955 4.12891C5.7923 4.13122 5.78825 4.13453 5.78365 4.13847C5.77432 4.14646 5.76136 4.15822 5.74572 4.17284C5.71438 4.20215 5.67166 4.24351 5.62438 4.2905L5.6515 4.31778ZM5.79761 4.15582C5.79025 4.14846 5.79228 4.13952 5.79247 4.13862C5.79295 4.13643 5.79371 4.13499 5.7938 4.13482C5.7941 4.13423 5.79414 4.13429 5.79337 4.13535C5.792 4.13725 5.7895 4.14035 5.78573 4.14475C5.77829 4.15344 5.76698 4.16592 5.75248 4.18143C5.72353 4.21238 5.68246 4.25481 5.63565 4.30191L5.66293 4.32903C5.70992 4.28176 5.75128 4.23903 5.78058 4.2077C5.7952 4.19206 5.80697 4.1791 5.81495 4.16977C5.81889 4.16517 5.82221 4.16112 5.82451 4.15793C5.82559 4.15644 5.82694 4.15448 5.82801 4.1524C5.82848 4.15149 5.82948 4.14945 5.83006 4.14679C5.83036 4.14542 5.83235 4.13616 5.82481 4.12862L5.79761 4.15582ZM5.64926 4.3347C5.7577 4.33489 5.85484 4.33638 5.92478 4.33867C5.95979 4.33982 5.98778 4.34116 6.0069 4.34262C6.01654 4.34335 6.0235 4.34409 6.02786 4.34477C6.03017 4.34514 6.03097 4.34537 6.03087 4.34534C6.03079 4.34531 6.03049 4.34521 6.03006 4.34503C6.02967 4.34487 6.02886 4.3445 6.02787 4.34387C6.02729 4.34351 6.01943 4.33872 6.01943 4.32827H6.0579C6.0579 4.31739 6.04971 4.31217 6.04847 4.31139C6.04605 4.30986 6.04371 4.30905 6.04249 4.30867C6.03976 4.3078 6.03665 4.30722 6.03383 4.30677C6.02792 4.30584 6.01972 4.30502 6.00982 4.30426C5.98987 4.30274 5.96123 4.30138 5.92604 4.30023C5.85558 4.29792 5.75802 4.29643 5.64932 4.29623L5.64926 4.3347ZM6.01943 4.32827C6.01943 4.31787 6.02722 4.31307 6.02783 4.31268C6.02883 4.31205 6.02963 4.31168 6.03004 4.31151C6.03047 4.31133 6.03078 4.31123 6.03087 4.3112C6.03099 4.31116 6.03021 4.31139 6.02793 4.31175C6.02363 4.31243 6.01676 4.31316 6.00723 4.31389C5.98833 4.31534 5.96064 4.31668 5.92599 4.31782C5.85676 4.32011 5.76057 4.32161 5.65301 4.32183L5.65309 4.36029C5.7609 4.36007 5.85751 4.35857 5.92726 4.35627C5.96209 4.35512 5.99043 4.35376 6.01017 4.35225C6.01997 4.35149 6.02808 4.35067 6.03394 4.34975C6.03673 4.3493 6.03982 4.34872 6.04254 4.34785C6.04377 4.34746 6.04611 4.34665 6.04852 4.34512C6.04979 4.34431 6.0579 4.33909 6.0579 4.32827H6.01943ZM5.63939 4.3546C5.68619 4.40181 5.72699 4.44443 5.75554 4.47564C5.76984 4.49129 5.78088 4.50387 5.78802 4.51264C5.79166 4.51711 5.79392 4.52016 5.79508 4.52194C5.79574 4.52296 5.79553 4.52278 5.79514 4.52182C5.79498 4.52143 5.79428 4.51969 5.79409 4.51716C5.7939 4.51484 5.79391 4.50821 5.7995 4.50262L5.82671 4.52982C5.83255 4.52398 5.83266 4.51696 5.83243 4.51412C5.83219 4.51107 5.83131 4.50866 5.83083 4.50747C5.8298 4.50491 5.82839 4.5026 5.82732 4.50096C5.82503 4.49743 5.82172 4.49311 5.81786 4.48837C5.81002 4.47873 5.79839 4.4655 5.78392 4.44968C5.75492 4.41796 5.71373 4.37495 5.66671 4.32752L5.63939 4.3546ZM5.7995 4.50262C5.8051 4.49702 5.81173 4.49701 5.81404 4.4972C5.81658 4.4974 5.81832 4.4981 5.81871 4.49826C5.81967 4.49864 5.81985 4.49885 5.81883 4.49819C5.81704 4.49703 5.814 4.49477 5.80953 4.49113C5.80075 4.484 5.78817 4.47296 5.77252 4.45864C5.74131 4.4301 5.69869 4.38929 5.65148 4.34249L5.62439 4.36981C5.67183 4.41684 5.71484 4.45802 5.74657 4.48704C5.76239 4.5015 5.77561 4.51313 5.78526 4.52098C5.78999 4.52483 5.79432 4.52814 5.79785 4.53043C5.79948 4.5315 5.8018 4.53291 5.80435 4.53394C5.80555 4.53442 5.80795 4.5353 5.81101 4.53554C5.81385 4.53577 5.82087 4.53566 5.82671 4.52982L5.7995 4.50262ZM5.6187 4.35611C5.61848 4.46367 5.61698 4.55987 5.6147 4.6291C5.61355 4.66376 5.61222 4.69145 5.61077 4.71035C5.61003 4.71989 5.6093 4.72676 5.60863 4.73105C5.60826 4.73334 5.60804 4.73411 5.60807 4.73399C5.6081 4.7339 5.6082 4.7336 5.60839 4.73316C5.60856 4.73276 5.60893 4.73195 5.60956 4.73095C5.60995 4.73035 5.61474 4.72256 5.62514 4.72256V4.76103C5.63596 4.76103 5.64118 4.7529 5.64199 4.75164C5.64353 4.74923 5.64434 4.74688 5.64473 4.74567C5.64559 4.74295 5.64618 4.73986 5.64662 4.73706C5.64755 4.7312 5.64837 4.72309 5.64912 4.7133C5.65064 4.69355 5.65199 4.6652 5.65314 4.63037C5.65545 4.56062 5.65695 4.46401 5.65717 4.35619L5.6187 4.35611ZM5.62514 4.72256C5.63559 4.72256 5.64039 4.73042 5.64075 4.73099C5.64138 4.73198 5.64174 4.73279 5.64191 4.73318C5.64209 4.73362 5.64219 4.73391 5.64221 4.734C5.64225 4.7341 5.64201 4.73329 5.64165 4.73098C5.64096 4.72662 5.64023 4.71967 5.63949 4.71003C5.63804 4.69091 5.6367 4.66292 5.63555 4.6279C5.63326 4.55796 5.63177 4.46083 5.63157 4.35238L5.59311 4.35245C5.5933 4.46115 5.5948 4.5587 5.5971 4.62916C5.59825 4.66435 5.59962 4.69299 5.60114 4.71295C5.60189 4.72285 5.60272 4.73104 5.60365 4.73695C5.60409 4.73977 5.60468 4.74288 5.60554 4.74561C5.60593 4.74684 5.60673 4.74918 5.60826 4.7516C5.60905 4.75283 5.61427 4.76103 5.62514 4.76103V4.72256ZM5.59878 4.33877C5.55169 4.38559 5.50926 4.42665 5.47831 4.4556C5.4628 4.4701 5.45032 4.48141 5.44164 4.48885C5.43723 4.49262 5.43413 4.49511 5.43223 4.49649C5.43117 4.49726 5.43111 4.49722 5.4317 4.49691C5.43187 4.49683 5.43331 4.49606 5.43551 4.49559C5.43641 4.49539 5.44534 4.49336 5.4527 4.50072L5.4255 4.52792C5.43305 4.53546 5.4423 4.53347 5.44368 4.53318C5.44633 4.5326 5.44838 4.53159 5.44929 4.53113C5.45137 4.53006 5.45333 4.5287 5.45481 4.52763C5.458 4.52532 5.46205 4.52201 5.46666 4.51807C5.47599 4.51008 5.48894 4.49832 5.50458 4.4837C5.53591 4.4544 5.57863 4.41304 5.6259 4.36606L5.59878 4.33877ZM5.4527 4.50072C5.46006 4.50808 5.45803 4.51701 5.45783 4.51791C5.45736 4.5201 5.4566 4.52155 5.45651 4.52171C5.4562 4.52231 5.45617 4.52225 5.45694 4.52119C5.45831 4.51929 5.4608 4.51619 5.46457 4.51178C5.47201 4.5031 5.48332 4.49062 5.49783 4.47511C5.52677 4.44415 5.56784 4.40173 5.61466 4.35463L5.58738 4.32751C5.54039 4.37478 5.49903 4.4175 5.46973 4.44884C5.45511 4.46447 5.44334 4.47743 5.43535 4.48676C5.43141 4.49136 5.4281 4.49542 5.42579 4.49861C5.42472 4.50009 5.42336 4.50206 5.4223 4.50413C5.42183 4.50504 5.42082 4.50708 5.42025 4.50974C5.41995 4.51112 5.41796 4.52037 5.4255 4.52792L5.4527 4.50072ZM5.60105 4.32183C5.4926 4.32164 5.39546 4.32015 5.32551 4.31786C5.2905 4.31671 5.26251 4.31538 5.24338 4.31392C5.23374 4.31318 5.22678 4.31245 5.22243 4.31176C5.22012 4.3114 5.21931 4.31116 5.21941 4.3112C5.2195 4.31122 5.21979 4.31132 5.22022 4.3115C5.22062 4.31167 5.22143 4.31203 5.22242 4.31266C5.22299 4.31302 5.23085 4.31782 5.23085 4.32827H5.19238C5.19238 4.33914 5.20058 4.34436 5.20182 4.34515C5.20423 4.34668 5.20657 4.34748 5.2078 4.34787C5.21053 4.34873 5.21363 4.34932 5.21645 4.34976C5.22237 4.35069 5.23056 4.35152 5.24046 4.35227C5.26042 4.35379 5.28906 4.35516 5.32425 4.35631C5.39472 4.35861 5.49228 4.36011 5.60098 4.3603L5.60105 4.32183ZM5.23085 4.32827C5.23085 4.33867 5.22306 4.34346 5.22246 4.34385C5.22146 4.34448 5.22065 4.34485 5.22025 4.34502C5.21981 4.34521 5.21951 4.34531 5.21942 4.34534C5.2193 4.34537 5.22007 4.34515 5.22236 4.34478C5.22665 4.34411 5.23352 4.34337 5.24306 4.34264C5.26196 4.34119 5.28965 4.33986 5.3243 4.33871C5.39353 4.33643 5.48973 4.33493 5.5973 4.33471L5.59722 4.29624C5.4894 4.29646 5.39278 4.29796 5.32304 4.30027C5.2882 4.30142 5.25986 4.30277 5.24011 4.30429C5.23032 4.30504 5.22221 4.30586 5.21635 4.30679C5.21356 4.30723 5.21046 4.30782 5.20774 4.30868C5.20652 4.30907 5.20418 4.30988 5.20177 4.31142C5.2005 4.31223 5.19238 4.31745 5.19238 4.32827H5.23085ZM5.61092 4.30193C5.56412 4.25472 5.52332 4.21211 5.49477 4.18089C5.48046 4.16524 5.46943 4.15267 5.46229 4.14389C5.45865 4.13942 5.45639 4.13638 5.45523 4.1346C5.45457 4.13358 5.45478 4.13375 5.45517 4.13471C5.45533 4.13511 5.45603 4.13685 5.45623 4.13938C5.45641 4.1417 5.4564 4.14832 5.45081 4.15392L5.4236 4.12672C5.41776 4.13256 5.41766 4.13957 5.41788 4.14241C5.41812 4.14547 5.419 4.14788 5.41948 4.14907C5.42051 4.15163 5.42192 4.15394 5.42299 4.15557C5.42528 4.15911 5.42859 4.16342 5.43245 4.16817C5.44029 4.17781 5.45192 4.19103 5.46639 4.20685C5.49539 4.23857 5.53658 4.28158 5.5836 4.32901L5.61092 4.30193ZM5.45081 4.15392C5.44521 4.15952 5.43858 4.15952 5.43627 4.15934C5.43373 4.15914 5.43199 4.15844 5.4316 4.15828C5.43064 4.1579 5.43047 4.15768 5.43149 4.15834C5.43326 4.1595 5.43631 4.16177 5.44078 4.1654C5.44955 4.17254 5.46213 4.18358 5.47778 4.19788C5.50899 4.22643 5.5516 4.26722 5.59881 4.31402L5.62589 4.2867C5.57846 4.23968 5.53545 4.1985 5.50374 4.1695C5.48792 4.15503 5.4747 4.1434 5.46505 4.13556C5.46031 4.1317 5.45599 4.1284 5.45246 4.1261C5.45083 4.12504 5.44851 4.12362 5.44596 4.1226C5.44476 4.12212 5.44236 4.12123 5.4393 4.12099C5.43646 4.12077 5.42945 4.12088 5.4236 4.12672L5.45081 4.15392ZM5.63158 4.3004C5.6318 4.19284 5.6333 4.09665 5.63559 4.02742C5.63673 3.99277 5.63807 3.96509 5.63952 3.94618C5.64025 3.93665 5.64098 3.92977 5.64166 3.92548C5.64202 3.9232 5.64225 3.92242 5.64221 3.92254C5.64218 3.92264 5.64208 3.92294 5.6419 3.92337C5.64173 3.92377 5.64136 3.92459 5.64072 3.92558C5.64034 3.92619 5.63554 3.93398 5.62514 3.93398V3.89551C5.61432 3.89551 5.6091 3.90363 5.60829 3.90489C5.60675 3.90731 5.60595 3.90965 5.60556 3.91087C5.60469 3.91359 5.60411 3.91668 5.60366 3.91947C5.60274 3.92533 5.60192 3.93344 5.60116 3.94324C5.59965 3.96298 5.59829 3.99132 5.59714 4.02615C5.59484 4.0959 5.59334 4.19251 5.59312 4.30032L5.63158 4.3004ZM5.62514 3.93398C5.61469 3.93398 5.6099 3.92611 5.60954 3.92554C5.60891 3.92455 5.60854 3.92374 5.60838 3.92335C5.60819 3.92292 5.6081 3.92262 5.60807 3.92253C5.60804 3.92244 5.60827 3.92324 5.60864 3.92555C5.60932 3.92991 5.61006 3.93687 5.61079 3.94651C5.61225 3.96563 5.61359 3.99362 5.61474 4.02864C5.61703 4.09858 5.61852 4.19572 5.61871 4.30418L5.65718 4.30411C5.65698 4.1954 5.65549 4.09784 5.65318 4.02738C5.65203 3.99219 5.65067 3.96354 5.64915 3.94359C5.64839 3.93369 5.64757 3.92549 5.64664 3.91958C5.64619 3.91676 5.64561 3.91365 5.64474 3.91092C5.64436 3.9097 5.64355 3.90735 5.64202 3.90494C5.64124 3.9037 5.63602 3.89551 5.62514 3.89551V3.93398Z" fill="#40A083"/>
<path d="M11.3684 2.47054L11.3539 2.47056L11.354 2.50515L11.3785 2.48077L11.3684 2.47054ZM11.4983 2.34909L11.5085 2.33889L11.5085 2.33889L11.4983 2.34909ZM11.3769 2.47903L11.3666 2.46886L11.3422 2.49339L11.3768 2.49346L11.3769 2.47903ZM11.3797 2.49823L11.3796 2.4838L11.3451 2.48387L11.3694 2.50838L11.3797 2.49823ZM11.3683 2.50954L11.3785 2.4993L11.354 2.475L11.3539 2.50951L11.3683 2.50954ZM11.3491 2.50674L11.3636 2.50672L11.3635 2.47213L11.339 2.49651L11.3491 2.50674ZM11.2192 2.62817L11.2294 2.61797L11.2192 2.62817ZM11.3407 2.49823L11.3509 2.5084L11.3753 2.48387L11.3407 2.48381L11.3407 2.49823ZM11.3378 2.47904L11.3379 2.49346L11.3724 2.49339L11.3481 2.46888L11.3378 2.47904ZM11.3492 2.4677L11.339 2.47795L11.3635 2.50224L11.3636 2.46773L11.3492 2.4677ZM11.3785 2.48077C11.4138 2.44566 11.4457 2.41485 11.4689 2.39314C11.4805 2.38226 11.4899 2.37378 11.4964 2.3682C11.4997 2.36537 11.502 2.3635 11.5034 2.36247C11.5042 2.36189 11.5043 2.36192 11.5038 2.36215C11.5037 2.36221 11.5026 2.36279 11.501 2.36314C11.5003 2.36329 11.4936 2.36481 11.4881 2.35929L11.5085 2.33889C11.5028 2.33324 11.4959 2.33473 11.4949 2.33495C11.4929 2.33538 11.4913 2.33614 11.4907 2.33649C11.4891 2.33729 11.4876 2.3383 11.4865 2.33911C11.4841 2.34085 11.4811 2.34333 11.4776 2.34628C11.4706 2.35227 11.4609 2.3611 11.4492 2.37207C11.4257 2.39404 11.3936 2.42507 11.3582 2.46031L11.3785 2.48077ZM11.4881 2.35929C11.4826 2.35377 11.4841 2.34708 11.4842 2.3464C11.4846 2.34475 11.4852 2.34367 11.4852 2.34355C11.4855 2.3431 11.4855 2.34315 11.4849 2.34394C11.4839 2.34537 11.482 2.34769 11.4792 2.351C11.4736 2.35751 11.4651 2.36687 11.4543 2.3785C11.4325 2.40172 11.4017 2.43354 11.3666 2.46886L11.3871 2.4892C11.4223 2.45375 11.4534 2.42171 11.4753 2.3982C11.4863 2.38648 11.4951 2.37676 11.5011 2.36976C11.5041 2.36631 11.5065 2.36327 11.5083 2.36088C11.5091 2.35977 11.5101 2.35829 11.5109 2.35674C11.5112 2.35605 11.512 2.35452 11.5124 2.35252C11.5127 2.3515 11.5142 2.34455 11.5085 2.33889L11.4881 2.35929ZM11.3768 2.49346C11.4582 2.4936 11.531 2.49472 11.5835 2.49644C11.6097 2.4973 11.6307 2.4983 11.6451 2.4994C11.6523 2.49995 11.6575 2.5005 11.6608 2.50101C11.6625 2.50128 11.6631 2.50146 11.663 2.50144C11.663 2.50141 11.6628 2.50134 11.6624 2.50121C11.6621 2.50108 11.6615 2.50081 11.6608 2.50034C11.6604 2.50006 11.6545 2.49647 11.6545 2.48863H11.6833C11.6833 2.48047 11.6772 2.47656 11.6762 2.47597C11.6744 2.47482 11.6727 2.47422 11.6718 2.47393C11.6697 2.47328 11.6674 2.47284 11.6653 2.47251C11.6608 2.47181 11.6547 2.47119 11.6473 2.47063C11.6323 2.46949 11.6108 2.46847 11.5844 2.4676C11.5316 2.46587 11.4584 2.46475 11.3769 2.46461L11.3768 2.49346ZM11.6545 2.48863C11.6545 2.48083 11.6603 2.47724 11.6608 2.47695C11.6615 2.47647 11.6621 2.47619 11.6624 2.47607C11.6627 2.47593 11.663 2.47585 11.663 2.47583C11.6631 2.4758 11.6626 2.47597 11.6608 2.47624C11.6576 2.47675 11.6525 2.4773 11.6453 2.47785C11.6311 2.47894 11.6104 2.47994 11.5844 2.4808C11.5325 2.48251 11.4603 2.48364 11.3796 2.4838L11.3797 2.51265C11.4606 2.51249 11.533 2.51136 11.5853 2.50963C11.6115 2.50877 11.6327 2.50775 11.6475 2.50662C11.6549 2.50605 11.661 2.50544 11.6653 2.50474C11.6674 2.50441 11.6698 2.50397 11.6718 2.50332C11.6727 2.50303 11.6745 2.50242 11.6763 2.50127C11.6772 2.50066 11.6833 2.49675 11.6833 2.48863H11.6545ZM11.3694 2.50838C11.4045 2.54379 11.4351 2.57575 11.4565 2.59916C11.4673 2.6109 11.4756 2.62033 11.4809 2.62691C11.4836 2.63026 11.4853 2.63255 11.4862 2.63389C11.4867 2.63465 11.4865 2.63452 11.4862 2.6338C11.4861 2.63351 11.4856 2.6322 11.4855 2.6303C11.4853 2.62856 11.4853 2.62359 11.4895 2.61939L11.5099 2.6398C11.5143 2.63541 11.5144 2.63015 11.5142 2.62802C11.514 2.62573 11.5134 2.62393 11.513 2.62303C11.5122 2.62111 11.5112 2.61938 11.5104 2.61815C11.5087 2.6155 11.5062 2.61227 11.5033 2.60871C11.4974 2.60148 11.4887 2.59156 11.4778 2.57969C11.4561 2.5559 11.4252 2.52365 11.3899 2.48807L11.3694 2.50838ZM11.4895 2.61939C11.4937 2.6152 11.4987 2.61519 11.5004 2.61533C11.5023 2.61548 11.5036 2.616 11.5039 2.61612C11.5046 2.61641 11.5048 2.61657 11.504 2.61608C11.5027 2.6152 11.5004 2.61351 11.497 2.61078C11.4905 2.60543 11.481 2.59715 11.4693 2.58641C11.4459 2.565 11.4139 2.5344 11.3785 2.4993L11.3582 2.51979C11.3938 2.55506 11.426 2.58595 11.4498 2.60771C11.4617 2.61856 11.4716 2.62728 11.4788 2.63316C11.4824 2.63605 11.4856 2.63854 11.4883 2.64026C11.4895 2.64105 11.4912 2.64212 11.4932 2.64289C11.4941 2.64325 11.4959 2.64391 11.4982 2.64409C11.5003 2.64426 11.5055 2.64418 11.5099 2.6398L11.4895 2.61939ZM11.3539 2.50951C11.3538 2.59019 11.3526 2.66234 11.3509 2.71426C11.3501 2.74025 11.3491 2.76102 11.348 2.7752C11.3474 2.78235 11.3469 2.7875 11.3464 2.79072C11.3461 2.79243 11.3459 2.79302 11.3459 2.79292C11.346 2.79286 11.346 2.79263 11.3462 2.7923C11.3463 2.792 11.3466 2.7914 11.3471 2.79065C11.3474 2.79019 11.351 2.78435 11.3587 2.78435V2.8132C11.3669 2.8132 11.3708 2.80711 11.3714 2.80616C11.3725 2.80435 11.3731 2.80259 11.3734 2.80168C11.3741 2.79964 11.3745 2.79732 11.3749 2.79523C11.3756 2.79083 11.3762 2.78475 11.3767 2.7774C11.3779 2.76259 11.3789 2.74133 11.3797 2.71521C11.3815 2.6629 11.3826 2.59044 11.3828 2.50957L11.3539 2.50951ZM11.3587 2.78435C11.3666 2.78435 11.3702 2.79025 11.3705 2.79067C11.3709 2.79142 11.3712 2.79203 11.3713 2.79232C11.3715 2.79265 11.3715 2.79287 11.3716 2.79293C11.3716 2.79301 11.3714 2.7924 11.3711 2.79067C11.3706 2.7874 11.3701 2.78218 11.3695 2.77495C11.3684 2.76061 11.3674 2.73962 11.3666 2.71336C11.3648 2.6609 11.3637 2.58805 11.3636 2.50672L11.3347 2.50677C11.3349 2.58829 11.336 2.66146 11.3377 2.7143C11.3386 2.7407 11.3396 2.76217 11.3407 2.77714C11.3413 2.78457 11.3419 2.79071 11.3426 2.79515C11.343 2.79726 11.3434 2.79959 11.344 2.80164C11.3443 2.80256 11.3449 2.80432 11.3461 2.80613C11.3467 2.80706 11.3506 2.8132 11.3587 2.8132V2.78435ZM11.339 2.49651C11.3037 2.53162 11.2718 2.56242 11.2486 2.58413C11.237 2.59501 11.2276 2.60349 11.2211 2.60907C11.2178 2.6119 11.2155 2.61376 11.2141 2.6148C11.2133 2.61537 11.2132 2.61534 11.2137 2.61511C11.2138 2.61505 11.2149 2.61448 11.2165 2.61412C11.2172 2.61397 11.2239 2.61245 11.2294 2.61797L11.209 2.63837C11.2147 2.64403 11.2216 2.64254 11.2226 2.64231C11.2246 2.64188 11.2262 2.64113 11.2269 2.64078C11.2284 2.63997 11.2299 2.63896 11.231 2.63816C11.2334 2.63642 11.2364 2.63394 11.2399 2.63098C11.2469 2.62499 11.2566 2.61617 11.2683 2.6052C11.2918 2.58323 11.3239 2.55221 11.3593 2.51697L11.339 2.49651ZM11.2294 2.61797C11.2349 2.62349 11.2334 2.63019 11.2333 2.63087C11.2329 2.63251 11.2323 2.63359 11.2323 2.63372C11.232 2.63416 11.232 2.63412 11.2326 2.63332C11.2336 2.6319 11.2355 2.62957 11.2383 2.62627C11.2439 2.61975 11.2524 2.6104 11.2633 2.59876C11.285 2.57555 11.3158 2.54373 11.3509 2.5084L11.3304 2.48806C11.2952 2.52352 11.2642 2.55556 11.2422 2.57906C11.2312 2.59079 11.2224 2.60051 11.2164 2.6075C11.2135 2.61095 11.211 2.61399 11.2092 2.61639C11.2084 2.6175 11.2074 2.61897 11.2066 2.62053C11.2063 2.62121 11.2055 2.62274 11.2051 2.62474C11.2049 2.62577 11.2034 2.63271 11.209 2.63837L11.2294 2.61797ZM11.3407 2.48381C11.2593 2.48366 11.1865 2.48254 11.134 2.48083C11.1078 2.47997 11.0868 2.47896 11.0724 2.47787C11.0652 2.47732 11.06 2.47677 11.0567 2.47625C11.055 2.47598 11.0544 2.47581 11.0544 2.47583C11.0545 2.47585 11.0547 2.47592 11.0551 2.47606C11.0554 2.47618 11.056 2.47646 11.0567 2.47693C11.0571 2.4772 11.063 2.48079 11.063 2.48863H11.0342C11.0342 2.49679 11.0403 2.5007 11.0413 2.50129C11.0431 2.50244 11.0448 2.50304 11.0457 2.50333C11.0478 2.50398 11.0501 2.50442 11.0522 2.50475C11.0567 2.50545 11.0628 2.50607 11.0702 2.50664C11.0852 2.50778 11.1067 2.5088 11.1331 2.50966C11.1859 2.51139 11.2591 2.51251 11.3406 2.51266L11.3407 2.48381ZM11.063 2.48863C11.063 2.49643 11.0572 2.50003 11.0567 2.50032C11.056 2.5008 11.0554 2.50107 11.0551 2.5012C11.0548 2.50134 11.0545 2.50141 11.0545 2.50143C11.0544 2.50146 11.0549 2.50129 11.0567 2.50102C11.0599 2.50051 11.065 2.49996 11.0722 2.49941C11.0864 2.49833 11.1071 2.49732 11.1331 2.49647C11.185 2.49475 11.2572 2.49363 11.3379 2.49346L11.3378 2.46461C11.2569 2.46478 11.1845 2.46591 11.1322 2.46763C11.106 2.46849 11.0848 2.46951 11.07 2.47065C11.0626 2.47121 11.0565 2.47183 11.0522 2.47252C11.0501 2.47285 11.0477 2.47329 11.0457 2.47394C11.0448 2.47424 11.043 2.47484 11.0412 2.476C11.0403 2.4766 11.0342 2.48052 11.0342 2.48863H11.063ZM11.3481 2.46888C11.313 2.43347 11.2824 2.40151 11.261 2.3781C11.2502 2.36637 11.242 2.35693 11.2366 2.35035C11.2339 2.347 11.2322 2.34471 11.2313 2.34338C11.2308 2.34262 11.231 2.34275 11.2313 2.34347C11.2314 2.34376 11.2319 2.34507 11.2321 2.34697C11.2322 2.3487 11.2322 2.35367 11.228 2.35787L11.2076 2.33747C11.2032 2.34185 11.2031 2.34711 11.2033 2.34924C11.2035 2.35153 11.2041 2.35334 11.2045 2.35423C11.2053 2.35615 11.2063 2.35789 11.2071 2.35911C11.2089 2.36176 11.2113 2.365 11.2142 2.36856C11.2201 2.37579 11.2288 2.38571 11.2397 2.39757C11.2614 2.42136 11.2923 2.45362 11.3276 2.48919L11.3481 2.46888ZM11.228 2.35787C11.2238 2.36207 11.2188 2.36207 11.2171 2.36194C11.2152 2.36179 11.2139 2.36126 11.2136 2.36114C11.2129 2.36086 11.2127 2.36069 11.2135 2.36119C11.2148 2.36206 11.2171 2.36376 11.2205 2.36648C11.2271 2.37184 11.2365 2.38011 11.2482 2.39084C11.2716 2.41225 11.3036 2.44285 11.339 2.47795L11.3593 2.45746C11.3237 2.42219 11.2915 2.39131 11.2677 2.36955C11.2558 2.3587 11.2459 2.34998 11.2387 2.3441C11.2351 2.34121 11.2319 2.33873 11.2292 2.33701C11.228 2.33621 11.2263 2.33515 11.2244 2.33438C11.2235 2.33402 11.2217 2.33336 11.2194 2.33318C11.2172 2.33301 11.212 2.33309 11.2076 2.33747L11.228 2.35787ZM11.3636 2.46773C11.3637 2.38706 11.3649 2.31492 11.3666 2.263C11.3674 2.23701 11.3684 2.21625 11.3695 2.20207C11.3701 2.19492 11.3706 2.18976 11.3711 2.18654C11.3714 2.18483 11.3716 2.18425 11.3716 2.18434C11.3715 2.18441 11.3715 2.18463 11.3713 2.18496C11.3712 2.18526 11.3709 2.18587 11.3704 2.18662C11.3701 2.18707 11.3665 2.19291 11.3587 2.19291V2.16406C11.3506 2.16406 11.3467 2.17015 11.3461 2.1711C11.345 2.17291 11.3444 2.17467 11.3441 2.17558C11.3434 2.17762 11.343 2.17994 11.3426 2.18204C11.3419 2.18643 11.3413 2.19252 11.3408 2.19986C11.3396 2.21467 11.3386 2.23592 11.3377 2.26205C11.336 2.31435 11.3349 2.38681 11.3347 2.46767L11.3636 2.46773ZM11.3587 2.19291C11.3509 2.19291 11.3473 2.18702 11.347 2.18659C11.3466 2.18585 11.3463 2.18524 11.3462 2.18494C11.346 2.18462 11.346 2.1844 11.3459 2.18433C11.3459 2.18426 11.3461 2.18486 11.3464 2.1866C11.3469 2.18986 11.3474 2.19508 11.348 2.20231C11.3491 2.21666 11.3501 2.23765 11.3509 2.26391C11.3527 2.31637 11.3538 2.38922 11.3539 2.47056L11.3828 2.47051C11.3826 2.38898 11.3815 2.31581 11.3798 2.26297C11.3789 2.23657 11.3779 2.21509 11.3768 2.20012C11.3762 2.1927 11.3756 2.18655 11.3749 2.18212C11.3745 2.18 11.3741 2.17767 11.3735 2.17562C11.3732 2.17471 11.3726 2.17295 11.3714 2.17114C11.3708 2.17021 11.3669 2.16406 11.3587 2.16406V2.19291Z" fill="#40A083"/>
<path d="M17.9789 8.83463L17.95 8.83468L17.9502 8.90386L17.9992 8.85509L17.9789 8.83463ZM18.2388 8.59174L18.2592 8.57134L18.2592 8.57134L18.2388 8.59174ZM17.9959 8.85162L17.9754 8.83128L17.9267 8.88034L17.9959 8.88047L17.9959 8.85162ZM18.0015 8.89001L18.0015 8.86116L17.9325 8.8613L17.9811 8.91032L18.0015 8.89001ZM17.9789 8.91264L17.9992 8.89215L17.9502 8.84356L17.95 8.91258L17.9789 8.91264ZM17.9405 8.90704L17.9693 8.90699L17.9692 8.83781L17.9201 8.88658L17.9405 8.90704ZM17.6806 9.1499L17.701 9.12949L17.6806 9.1499ZM17.9235 8.89002L17.944 8.91036L17.9927 8.86129L17.9235 8.86117L17.9235 8.89002ZM17.9179 8.85163L17.9179 8.88048L17.9869 8.88034L17.9384 8.83132L17.9179 8.85163ZM17.9405 8.82896L17.9202 8.84945L17.9692 8.89804L17.9693 8.82902L17.9405 8.82896ZM17.9992 8.85509C18.0699 8.78487 18.1335 8.72325 18.18 8.67983C18.2032 8.65808 18.2219 8.64111 18.235 8.62995C18.2416 8.62429 18.2462 8.62056 18.2491 8.61849C18.2507 8.61734 18.2508 8.6174 18.2499 8.61785C18.2496 8.61798 18.2475 8.61913 18.2442 8.61984C18.2428 8.62014 18.2294 8.62318 18.2184 8.61214L18.2592 8.57134C18.2479 8.56003 18.234 8.56301 18.2319 8.56346C18.2279 8.56432 18.2249 8.56583 18.2235 8.56653C18.2204 8.56813 18.2174 8.57016 18.2152 8.57178C18.2104 8.57525 18.2043 8.58021 18.1974 8.58612C18.1835 8.5981 18.164 8.61575 18.1406 8.63768C18.0935 8.68164 18.0295 8.74369 17.9585 8.81417L17.9992 8.85509ZM18.2184 8.61214C18.2073 8.6011 18.2104 8.5877 18.2107 8.58635C18.2114 8.58306 18.2125 8.5809 18.2127 8.58065C18.2131 8.57976 18.2132 8.57985 18.212 8.58144C18.21 8.58429 18.2062 8.58894 18.2006 8.59555C18.1894 8.60858 18.1724 8.62729 18.1507 8.65056C18.1073 8.69699 18.0457 8.76063 17.9754 8.83128L18.0164 8.87196C18.0868 8.80105 18.1489 8.73697 18.1928 8.68996C18.2148 8.66651 18.2324 8.64707 18.2444 8.63308C18.2503 8.62617 18.2553 8.62009 18.2587 8.61531C18.2604 8.61308 18.2624 8.61014 18.264 8.60703C18.2647 8.60566 18.2662 8.60259 18.2671 8.5986C18.2675 8.59655 18.2705 8.58266 18.2592 8.57134L18.2184 8.61214ZM17.9959 8.88047C18.1585 8.88076 18.3042 8.88299 18.4091 8.88643C18.4617 8.88815 18.5036 8.89016 18.5323 8.89235C18.5468 8.89345 18.5572 8.89455 18.5638 8.89558C18.5672 8.89612 18.5684 8.89647 18.5683 8.89643C18.5682 8.89638 18.5677 8.89624 18.5671 8.89597C18.5665 8.89572 18.5653 8.89517 18.5638 8.89423C18.5629 8.89368 18.5511 8.88649 18.5511 8.87082H18.6088C18.6088 8.8545 18.5965 8.84668 18.5947 8.8455C18.5911 8.8432 18.5875 8.842 18.5857 8.84142C18.5816 8.84012 18.5769 8.83924 18.5727 8.83858C18.5638 8.83718 18.5516 8.83594 18.5367 8.83481C18.5068 8.83253 18.4638 8.83049 18.411 8.82876C18.3053 8.8253 18.159 8.82306 17.996 8.82277L17.9959 8.88047ZM18.5511 8.87082C18.5511 8.85522 18.5628 8.84803 18.5637 8.84745C18.5652 8.84649 18.5664 8.84594 18.567 8.84569C18.5677 8.84541 18.5681 8.84526 18.5683 8.84522C18.5685 8.84516 18.5673 8.8455 18.5639 8.84604C18.5574 8.84706 18.5471 8.84816 18.5328 8.84926C18.5045 8.85143 18.4629 8.85343 18.411 8.85515C18.3071 8.85858 18.1628 8.86083 18.0015 8.86116L18.0016 8.91886C18.1633 8.91853 18.3082 8.91627 18.4129 8.91282C18.4651 8.91109 18.5076 8.90906 18.5372 8.90679C18.5519 8.90566 18.5641 8.90443 18.5729 8.90304C18.5771 8.90237 18.5817 8.9015 18.5858 8.9002C18.5876 8.89961 18.5911 8.8984 18.5947 8.89609C18.5967 8.89488 18.6088 8.88705 18.6088 8.87082H18.5511ZM17.9811 8.91032C18.0513 8.98114 18.1125 9.04506 18.1553 9.09188C18.1767 9.11536 18.1933 9.13422 18.204 9.14738C18.2095 9.15408 18.2129 9.15866 18.2146 9.16133C18.2156 9.16285 18.2153 9.16259 18.2147 9.16115C18.2144 9.16057 18.2134 9.15795 18.2131 9.15415C18.2128 9.15068 18.2128 9.14074 18.2212 9.13234L18.262 9.17314C18.2708 9.16438 18.271 9.15386 18.2706 9.1496C18.2703 9.14502 18.2689 9.14141 18.2682 9.13962C18.2667 9.13578 18.2646 9.13231 18.263 9.12986C18.2595 9.12456 18.2545 9.11809 18.2488 9.11097C18.237 9.09651 18.2196 9.07667 18.1979 9.05294C18.1543 9.00536 18.0926 8.94085 18.022 8.8697L17.9811 8.91032ZM18.2212 9.13234C18.2296 9.12394 18.2396 9.12394 18.243 9.12421C18.2468 9.12451 18.2495 9.12556 18.25 9.1258C18.2515 9.12638 18.2517 9.1267 18.2502 9.1257C18.2475 9.12396 18.243 9.12057 18.2363 9.11512C18.2231 9.10441 18.2042 9.08785 18.1808 9.06638C18.1339 9.02356 18.07 8.96236 17.9992 8.89215L17.9586 8.93313C18.0297 9.00367 18.0942 9.06545 18.1418 9.10897C18.1656 9.13067 18.1854 9.14811 18.1999 9.15988C18.207 9.16566 18.2134 9.17063 18.2187 9.17407C18.2212 9.17566 18.2247 9.17779 18.2285 9.17933C18.2303 9.18005 18.2339 9.18137 18.2385 9.18173C18.2427 9.18207 18.2533 9.18191 18.262 9.17314L18.2212 9.13234ZM17.95 8.91258C17.9497 9.07393 17.9474 9.21823 17.944 9.32207C17.9423 9.37406 17.9403 9.41559 17.9381 9.44395C17.937 9.45825 17.9359 9.46856 17.9349 9.475C17.9344 9.47842 17.934 9.47959 17.9341 9.4794C17.9341 9.47927 17.9343 9.47882 17.9346 9.47816C17.9348 9.47756 17.9354 9.47635 17.9363 9.47485C17.9369 9.47394 17.9441 9.46226 17.9597 9.46226V9.51996C17.9759 9.51996 17.9837 9.50777 17.985 9.50588C17.9873 9.50226 17.9885 9.49874 17.9891 9.49692C17.9904 9.49284 17.9912 9.4882 17.9919 9.48401C17.9933 9.47522 17.9945 9.46306 17.9957 9.44836C17.9979 9.41874 18 9.37622 18.0017 9.32398C18.0051 9.21935 18.0074 9.07443 18.0077 8.9127L17.95 8.91258ZM17.9597 9.46226C17.9754 9.46226 17.9826 9.47405 17.9831 9.4749C17.984 9.47639 17.9846 9.47761 17.9848 9.47819C17.9851 9.47885 17.9853 9.47929 17.9853 9.47941C17.9853 9.47957 17.985 9.47836 17.9844 9.47489C17.9834 9.46835 17.9823 9.45792 17.9812 9.44346C17.979 9.41478 17.977 9.37279 17.9753 9.32027C17.9719 9.21536 17.9696 9.06966 17.9693 8.90699L17.9116 8.90709C17.9119 9.07014 17.9142 9.21647 17.9176 9.32216C17.9194 9.37495 17.9214 9.4179 17.9237 9.44784C17.9248 9.46269 17.926 9.47498 17.9274 9.48385C17.9281 9.48808 17.929 9.49274 17.9303 9.49684C17.9309 9.49868 17.9321 9.50219 17.9344 9.50581C17.9355 9.50767 17.9434 9.51996 17.9597 9.51996V9.46226ZM17.9201 8.88658C17.8495 8.9568 17.7859 9.0184 17.7394 9.06182C17.7162 9.08357 17.6975 9.10054 17.6844 9.11169C17.6778 9.11735 17.6732 9.12108 17.6703 9.12315C17.6687 9.1243 17.6686 9.12424 17.6695 9.12378C17.6698 9.12366 17.6719 9.12251 17.6752 9.1218C17.6766 9.1215 17.69 9.11845 17.701 9.12949L17.6602 9.1703C17.6715 9.18161 17.6854 9.17863 17.6875 9.17818C17.6915 9.17732 17.6945 9.17581 17.6959 9.17511C17.699 9.1735 17.702 9.17147 17.7042 9.16987C17.709 9.16639 17.7151 9.16143 17.722 9.15552C17.736 9.14353 17.7554 9.1259 17.7788 9.10396C17.8258 9.06002 17.8899 8.99797 17.9608 8.9275L17.9201 8.88658ZM17.701 9.12949C17.7121 9.14053 17.709 9.15393 17.7087 9.15529C17.708 9.15858 17.7069 9.16074 17.7067 9.16099C17.7063 9.16188 17.7062 9.16179 17.7074 9.1602C17.7094 9.15735 17.7132 9.1527 17.7188 9.14609C17.73 9.13306 17.747 9.11435 17.7687 9.09108C17.8121 9.04465 17.8737 8.98101 17.944 8.91036L17.903 8.86968C17.8326 8.94059 17.7705 9.00467 17.7266 9.05167C17.7046 9.07513 17.687 9.09457 17.675 9.10856C17.6691 9.11546 17.6641 9.12154 17.6607 9.12633C17.659 9.12855 17.657 9.1315 17.6554 9.13461C17.6547 9.13598 17.6532 9.13904 17.6523 9.14303C17.6519 9.14509 17.6489 9.15898 17.6602 9.1703L17.701 9.12949ZM17.9235 8.86117C17.7609 8.86088 17.6152 8.85864 17.5102 8.85521C17.4577 8.85349 17.4157 8.85148 17.3871 8.84929C17.3726 8.84819 17.3621 8.84709 17.3556 8.84606C17.3521 8.84552 17.3509 8.84517 17.3511 8.84521C17.3512 8.84525 17.3517 8.8454 17.3523 8.84567C17.3529 8.84592 17.3541 8.84647 17.3556 8.84741C17.3565 8.84795 17.3682 8.85514 17.3682 8.87082H17.3105C17.3105 8.88713 17.3228 8.89496 17.3247 8.89614C17.3283 8.89843 17.3318 8.89964 17.3337 8.90022C17.3378 8.90152 17.3424 8.9024 17.3467 8.90306C17.3555 8.90446 17.3678 8.90569 17.3827 8.90683C17.4126 8.90911 17.4556 8.91115 17.5084 8.91288C17.6141 8.91634 17.7604 8.91858 17.9234 8.91887L17.9235 8.86117ZM17.3682 8.87082C17.3682 8.88642 17.3566 8.89361 17.3557 8.89419C17.3542 8.89514 17.3529 8.8957 17.3523 8.89595C17.3517 8.89623 17.3512 8.89638 17.3511 8.89642C17.3509 8.89648 17.3521 8.89614 17.3555 8.89559C17.3619 8.89458 17.3723 8.89348 17.3866 8.89238C17.4149 8.89021 17.4564 8.8882 17.5084 8.88649C17.6123 8.88306 17.7566 8.88081 17.9179 8.88048L17.9178 8.82278C17.7561 8.82311 17.6111 8.82536 17.5065 8.82882C17.4543 8.83054 17.4118 8.83258 17.3821 8.83485C17.3675 8.83598 17.3553 8.83721 17.3465 8.8386C17.3423 8.83926 17.3377 8.84014 17.3336 8.84144C17.3318 8.84203 17.3282 8.84324 17.3246 8.84555C17.3227 8.84676 17.3105 8.85459 17.3105 8.87082H17.3682ZM17.9384 8.83132C17.8682 8.7605 17.807 8.69658 17.7641 8.64976C17.7427 8.62628 17.7261 8.60742 17.7154 8.59426C17.71 8.58755 17.7066 8.58298 17.7048 8.58032C17.7038 8.57879 17.7041 8.57905 17.7047 8.58049C17.705 8.58108 17.706 8.58369 17.7063 8.58749C17.7066 8.59096 17.7066 8.6009 17.6982 8.60929L17.6574 8.56849C17.6486 8.57726 17.6485 8.58777 17.6488 8.59203C17.6492 8.59662 17.6505 8.60023 17.6512 8.60202C17.6527 8.60586 17.6549 8.60933 17.6565 8.61178C17.6599 8.61708 17.6649 8.62355 17.6706 8.63067C17.6824 8.64513 17.6999 8.66497 17.7216 8.6887C17.7651 8.73628 17.8268 8.80079 17.8974 8.87194L17.9384 8.83132ZM17.6982 8.60929C17.6898 8.61769 17.6798 8.6177 17.6764 8.61743C17.6726 8.61713 17.67 8.61608 17.6694 8.61584C17.6679 8.61526 17.6677 8.61494 17.6692 8.61594C17.6719 8.61767 17.6764 8.62107 17.6831 8.62652C17.6963 8.63723 17.7152 8.65378 17.7386 8.67524C17.7855 8.71806 17.8494 8.77925 17.9202 8.84945L17.9608 8.80847C17.8897 8.73794 17.8252 8.67617 17.7776 8.63266C17.7538 8.61096 17.734 8.59352 17.7195 8.58176C17.7124 8.57597 17.706 8.57101 17.7007 8.56757C17.6982 8.56597 17.6947 8.56385 17.6909 8.56231C17.6891 8.56159 17.6855 8.56027 17.6809 8.55991C17.6767 8.55957 17.6661 8.55973 17.6574 8.56849L17.6982 8.60929ZM17.9693 8.82902C17.9697 8.66768 17.9719 8.52339 17.9754 8.41955C17.9771 8.36757 17.9791 8.32605 17.9813 8.29769C17.9823 8.28339 17.9834 8.27308 17.9845 8.26664C17.985 8.26322 17.9853 8.26205 17.9853 8.26223C17.9852 8.26237 17.9851 8.26282 17.9848 8.26348C17.9846 8.26408 17.984 8.2653 17.9831 8.26679C17.9825 8.2677 17.9753 8.27938 17.9597 8.27938V8.22168C17.9435 8.22168 17.9356 8.23386 17.9344 8.23576C17.9321 8.23938 17.9309 8.24289 17.9303 8.24472C17.929 8.2488 17.9281 8.25344 17.9275 8.25763C17.9261 8.26642 17.9248 8.27858 17.9237 8.29327C17.9214 8.32289 17.9194 8.3654 17.9177 8.41765C17.9142 8.52226 17.912 8.66718 17.9116 8.8289L17.9693 8.82902ZM17.9597 8.27938C17.944 8.27938 17.9368 8.26759 17.9363 8.26673C17.9353 8.26525 17.9348 8.26404 17.9345 8.26344C17.9343 8.26279 17.9341 8.26235 17.9341 8.26222C17.934 8.26207 17.9344 8.26328 17.9349 8.26675C17.936 8.27328 17.9371 8.28372 17.9382 8.29818C17.9403 8.32687 17.9424 8.36885 17.9441 8.42137C17.9475 8.52629 17.9497 8.672 17.95 8.83468L18.0077 8.83458C18.0074 8.67152 18.0052 8.52518 18.0017 8.41949C18 8.3667 17.998 8.32373 17.9957 8.2938C17.9946 8.27895 17.9933 8.26666 17.9919 8.25779C17.9913 8.25356 17.9904 8.2489 17.9891 8.2448C17.9885 8.24296 17.9873 8.23945 17.985 8.23583C17.9838 8.23397 17.976 8.22168 17.9597 8.22168V8.27938Z" fill="#40A083"/>
<path d="M15.1594 4.51996L15.1402 4.52L15.1403 4.56612L15.173 4.5336L15.1594 4.51996ZM15.3327 4.35804L15.3463 4.34444L15.3463 4.34444L15.3327 4.35804ZM15.1708 4.53129L15.1571 4.51773L15.1246 4.55044L15.1707 4.55052L15.1708 4.53129ZM15.1745 4.55688L15.1745 4.53765L15.1285 4.53774L15.1609 4.57042L15.1745 4.55688ZM15.1594 4.57197L15.173 4.55831L15.1403 4.52591L15.1402 4.57193L15.1594 4.57197ZM15.1338 4.56824L15.1531 4.5682L15.153 4.52208L15.1203 4.55459L15.1338 4.56824ZM14.9606 4.73014L14.9742 4.71654L14.9606 4.73014ZM15.1225 4.55689L15.1361 4.57045L15.1687 4.53774L15.1225 4.53766L15.1225 4.55689ZM15.1187 4.53129L15.1188 4.55053L15.1648 4.55043L15.1324 4.51775L15.1187 4.53129ZM15.1338 4.51618L15.1203 4.52984L15.153 4.56224L15.1531 4.51622L15.1338 4.51618ZM15.173 4.5336C15.2201 4.48679 15.2625 4.44571 15.2935 4.41676C15.309 4.40226 15.3215 4.39095 15.3301 4.38351C15.3346 4.37974 15.3377 4.37725 15.3396 4.37587C15.3406 4.3751 15.3407 4.37514 15.3401 4.37544C15.3399 4.37553 15.3385 4.37629 15.3363 4.37677C15.3354 4.37697 15.3264 4.379 15.3191 4.37164L15.3463 4.34444C15.3387 4.33689 15.3295 4.33888 15.3281 4.33918C15.3255 4.33976 15.3234 4.34076 15.3225 4.34123C15.3204 4.3423 15.3185 4.34365 15.317 4.34473C15.3138 4.34704 15.3097 4.35035 15.3051 4.35429C15.2958 4.36228 15.2828 4.37404 15.2672 4.38866C15.2359 4.41797 15.1931 4.45933 15.1459 4.50632L15.173 4.5336ZM15.3191 4.37164C15.3117 4.36428 15.3138 4.35534 15.314 4.35444C15.3144 4.35225 15.3152 4.35081 15.3153 4.35064C15.3156 4.35005 15.3156 4.35011 15.3149 4.35117C15.3135 4.35307 15.311 4.35617 15.3072 4.36057C15.2998 4.36926 15.2885 4.38174 15.274 4.39725C15.245 4.4282 15.2039 4.47063 15.1571 4.51773L15.1844 4.54485C15.2314 4.49758 15.2728 4.45485 15.3021 4.42352C15.3167 4.40788 15.3284 4.39492 15.3364 4.38559C15.3404 4.38099 15.3437 4.37694 15.346 4.37375C15.3471 4.37226 15.3484 4.3703 15.3495 4.36823C15.35 4.36731 15.351 4.36527 15.3515 4.36261C15.3518 4.36124 15.3538 4.35198 15.3463 4.34444L15.3191 4.37164ZM15.1707 4.55052C15.2792 4.55071 15.3763 4.55221 15.4463 4.55449C15.4813 4.55564 15.5093 4.55698 15.5284 4.55844C15.538 4.55917 15.545 4.55991 15.5493 4.56059C15.5517 4.56096 15.5525 4.56119 15.5524 4.56116C15.5523 4.56113 15.552 4.56104 15.5515 4.56085C15.5512 4.56069 15.5503 4.56032 15.5493 4.55969C15.5488 4.55933 15.5409 4.55454 15.5409 4.54409H15.5794C15.5794 4.53321 15.5712 4.52799 15.57 4.52721C15.5675 4.52568 15.5652 4.52487 15.564 4.52449C15.5612 4.52362 15.5581 4.52304 15.5553 4.52259C15.5494 4.52166 15.5412 4.52084 15.5313 4.52008C15.5114 4.51856 15.4827 4.5172 15.4475 4.51605C15.3771 4.51374 15.2795 4.51225 15.1708 4.51205L15.1707 4.55052ZM15.5409 4.54409C15.5409 4.53369 15.5487 4.52889 15.5493 4.52851C15.5503 4.52787 15.5511 4.5275 15.5515 4.52733C15.552 4.52715 15.5523 4.52705 15.5524 4.52702C15.5525 4.52698 15.5517 4.52721 15.5494 4.52757C15.5451 4.52825 15.5382 4.52898 15.5287 4.52971C15.5098 4.53116 15.4821 4.5325 15.4475 4.53364C15.3782 4.53593 15.2821 4.53743 15.1745 4.53765L15.1746 4.57612C15.2824 4.57589 15.379 4.57439 15.4487 4.57209C15.4836 4.57094 15.5119 4.56958 15.5317 4.56807C15.5415 4.56732 15.5496 4.56649 15.5554 4.56557C15.5582 4.56512 15.5613 4.56454 15.564 4.56367C15.5652 4.56328 15.5676 4.56248 15.57 4.56094C15.5713 4.56013 15.5794 4.55491 15.5794 4.54409H15.5409ZM15.1609 4.57042C15.2077 4.61763 15.2485 4.66025 15.277 4.69146C15.2913 4.70711 15.3024 4.71969 15.3095 4.72846C15.3131 4.73293 15.3154 4.73598 15.3166 4.73776C15.3172 4.73878 15.317 4.7386 15.3166 4.73764C15.3165 4.73725 15.3158 4.73551 15.3156 4.73298C15.3154 4.73066 15.3154 4.72403 15.321 4.71844L15.3482 4.74564C15.354 4.7398 15.3541 4.73278 15.3539 4.72994C15.3537 4.72689 15.3528 4.72448 15.3523 4.72329C15.3513 4.72073 15.3499 4.71842 15.3488 4.71678C15.3465 4.71325 15.3432 4.70893 15.3393 4.70419C15.3315 4.69455 15.3199 4.68132 15.3054 4.6655C15.2764 4.63378 15.2352 4.59077 15.1882 4.54334L15.1609 4.57042ZM15.321 4.71844C15.3266 4.71284 15.3332 4.71283 15.3355 4.71302C15.3381 4.71322 15.3398 4.71392 15.3402 4.71408C15.3412 4.71446 15.3413 4.71467 15.3403 4.71401C15.3385 4.71285 15.3355 4.71059 15.331 4.70695C15.3222 4.69982 15.3097 4.68878 15.294 4.67446C15.2628 4.64592 15.2202 4.60511 15.173 4.55831L15.1459 4.58563C15.1933 4.63266 15.2363 4.67384 15.2681 4.70286C15.2839 4.71732 15.2971 4.72895 15.3067 4.7368C15.3115 4.74065 15.3158 4.74396 15.3193 4.74625C15.321 4.74732 15.3233 4.74873 15.3258 4.74976C15.327 4.75024 15.3294 4.75112 15.3325 4.75136C15.3353 4.75159 15.3423 4.75148 15.3482 4.74564L15.321 4.71844ZM15.1402 4.57193C15.14 4.6795 15.1385 4.77569 15.1362 4.84492C15.135 4.87958 15.1337 4.90727 15.1323 4.92617C15.1315 4.93571 15.1308 4.94258 15.1301 4.94687C15.1297 4.94916 15.1295 4.94993 15.1296 4.94981C15.1296 4.94972 15.1297 4.94942 15.1299 4.94898C15.13 4.94858 15.1304 4.94777 15.131 4.94677C15.1314 4.94617 15.1362 4.93838 15.1466 4.93838V4.97685C15.1574 4.97685 15.1627 4.96872 15.1635 4.96746C15.165 4.96505 15.1658 4.9627 15.1662 4.96149C15.1671 4.95877 15.1677 4.95568 15.1681 4.95288C15.169 4.94702 15.1699 4.93891 15.1706 4.92912C15.1721 4.90937 15.1735 4.88102 15.1746 4.84619C15.1769 4.77644 15.1784 4.67983 15.1787 4.57201L15.1402 4.57193ZM15.1466 4.93838C15.1571 4.93838 15.1619 4.94624 15.1622 4.94681C15.1629 4.9478 15.1632 4.94861 15.1634 4.949C15.1636 4.94944 15.1637 4.94973 15.1637 4.94982C15.1637 4.94992 15.1635 4.94911 15.1631 4.9468C15.1624 4.94244 15.1617 4.93549 15.161 4.92585C15.1595 4.90673 15.1582 4.87874 15.157 4.84372C15.1547 4.77378 15.1533 4.67665 15.1531 4.5682L15.1146 4.56827C15.1148 4.67697 15.1163 4.77452 15.1186 4.84498C15.1197 4.88017 15.1211 4.90881 15.1226 4.92877C15.1234 4.93867 15.1242 4.94686 15.1251 4.95277C15.1256 4.95559 15.1262 4.9587 15.127 4.96143C15.1274 4.96266 15.1282 4.965 15.1297 4.96742C15.1305 4.96865 15.1358 4.97685 15.1466 4.97685V4.93838ZM15.1203 4.55459C15.0732 4.60141 15.0307 4.64247 14.9998 4.67142C14.9843 4.68592 14.9718 4.69723 14.9631 4.70467C14.9587 4.70844 14.9556 4.71093 14.9537 4.71231C14.9527 4.71308 14.9526 4.71304 14.9532 4.71273C14.9534 4.71265 14.9548 4.71188 14.957 4.71141C14.9579 4.71121 14.9668 4.70918 14.9742 4.71654L14.947 4.74374C14.9545 4.75128 14.9638 4.74929 14.9652 4.749C14.9678 4.74842 14.9699 4.74741 14.9708 4.74695C14.9728 4.74588 14.9748 4.74452 14.9763 4.74345C14.9795 4.74114 14.9835 4.73783 14.9881 4.73389C14.9975 4.7259 15.0104 4.71414 15.0261 4.69952C15.0574 4.67022 15.1001 4.62886 15.1474 4.58188L15.1203 4.55459ZM14.9742 4.71654C14.9815 4.7239 14.9795 4.73283 14.9793 4.73373C14.9788 4.73593 14.9781 4.73737 14.978 4.73753C14.9777 4.73813 14.9777 4.73807 14.9784 4.73701C14.9798 4.73511 14.9823 4.73201 14.9861 4.7276C14.9935 4.71892 15.0048 4.70644 15.0193 4.69093C15.0483 4.65997 15.0893 4.61755 15.1361 4.57045L15.1089 4.54333C15.0619 4.5906 15.0205 4.63332 14.9912 4.66466C14.9766 4.68029 14.9648 4.69325 14.9568 4.70258C14.9529 4.70718 14.9496 4.71124 14.9473 4.71443C14.9462 4.71591 14.9448 4.71788 14.9438 4.71995C14.9433 4.72086 14.9423 4.7229 14.9417 4.72556C14.9414 4.72694 14.9394 4.73619 14.947 4.74374L14.9742 4.71654ZM15.1225 4.53766C15.0141 4.53746 14.9169 4.53597 14.847 4.53368C14.812 4.53253 14.784 4.5312 14.7649 4.52974C14.7552 4.529 14.7483 4.52827 14.7439 4.52758C14.7416 4.52722 14.7408 4.52699 14.7409 4.52702C14.741 4.52704 14.7413 4.52714 14.7417 4.52732C14.7421 4.52749 14.7429 4.52785 14.7439 4.52848C14.7445 4.52884 14.7523 4.53364 14.7523 4.54409H14.7139C14.7139 4.55496 14.7221 4.56018 14.7233 4.56097C14.7257 4.5625 14.7281 4.5633 14.7293 4.56369C14.732 4.56455 14.7351 4.56514 14.7379 4.56558C14.7439 4.56651 14.752 4.56734 14.7619 4.56809C14.7819 4.56961 14.8105 4.57098 14.8457 4.57213C14.9162 4.57443 15.0138 4.57593 15.1225 4.57612L15.1225 4.53766ZM14.7523 4.54409C14.7523 4.55449 14.7445 4.55928 14.7439 4.55967C14.7429 4.5603 14.7421 4.56067 14.7417 4.56084C14.7413 4.56103 14.741 4.56113 14.7409 4.56116C14.7408 4.56119 14.7416 4.56097 14.7438 4.5606C14.7481 4.55993 14.755 4.5592 14.7645 4.55846C14.7834 4.55701 14.8111 4.55568 14.8458 4.55453C14.915 4.55225 15.0112 4.55075 15.1188 4.55053L15.1187 4.51206C15.0109 4.51228 14.9143 4.51378 14.8445 4.51609C14.8097 4.51724 14.7813 4.51859 14.7616 4.52011C14.7518 4.52086 14.7437 4.52168 14.7378 4.52261C14.735 4.52305 14.7319 4.52364 14.7292 4.5245C14.728 4.52489 14.7257 4.5257 14.7233 4.52724C14.722 4.52805 14.7139 4.53327 14.7139 4.54409H14.7523ZM15.1324 4.51775C15.0856 4.47054 15.0448 4.42793 15.0163 4.39671C15.0019 4.38106 14.9909 4.36849 14.9838 4.35971C14.9801 4.35524 14.9779 4.3522 14.9767 4.35042C14.9761 4.3494 14.9763 4.34957 14.9767 4.35053C14.9768 4.35093 14.9775 4.35267 14.9777 4.3552C14.9779 4.35752 14.9779 4.36414 14.9723 4.36974L14.9451 4.34254C14.9392 4.34838 14.9391 4.35539 14.9394 4.35823C14.9396 4.36129 14.9405 4.3637 14.941 4.36489C14.942 4.36745 14.9434 4.36976 14.9445 4.37139C14.9468 4.37493 14.9501 4.37924 14.9539 4.38399C14.9618 4.39363 14.9734 4.40685 14.9879 4.42267C15.0169 4.45439 15.0581 4.4974 15.1051 4.54483L15.1324 4.51775ZM14.9723 4.36974C14.9667 4.37534 14.9601 4.37534 14.9578 4.37516C14.9552 4.37496 14.9535 4.37426 14.9531 4.3741C14.9521 4.37372 14.952 4.3735 14.953 4.37417C14.9547 4.37532 14.9578 4.37759 14.9623 4.38122C14.971 4.38836 14.9836 4.3994 14.9993 4.4137C15.0305 4.44225 15.0731 4.48304 15.1203 4.52984L15.1474 4.50252C15.0999 4.4555 15.0569 4.41432 15.0252 4.38532C15.0094 4.37085 14.9962 4.35922 14.9865 4.35138C14.9818 4.34752 14.9775 4.34422 14.9739 4.34192C14.9723 4.34086 14.97 4.33944 14.9674 4.33842C14.9662 4.33794 14.9638 4.33705 14.9608 4.33681C14.9579 4.33659 14.9509 4.3367 14.9451 4.34254L14.9723 4.36974ZM15.1531 4.51622C15.1533 4.40866 15.1548 4.31247 15.1571 4.24324C15.1582 4.20859 15.1596 4.18091 15.161 4.162C15.1617 4.15247 15.1625 4.14559 15.1631 4.1413C15.1635 4.13902 15.1637 4.13824 15.1637 4.13836C15.1637 4.13846 15.1636 4.13876 15.1634 4.13919C15.1632 4.13959 15.1628 4.14041 15.1622 4.1414C15.1618 4.14201 15.157 4.1498 15.1466 4.1498V4.11133C15.1358 4.11133 15.1306 4.11945 15.1298 4.12071C15.1282 4.12313 15.1274 4.12547 15.127 4.12669C15.1262 4.12941 15.1256 4.1325 15.1251 4.13529C15.1242 4.14115 15.1234 4.14926 15.1226 4.15906C15.1211 4.1788 15.1198 4.20714 15.1186 4.24197C15.1163 4.31172 15.1148 4.40833 15.1146 4.51614L15.1531 4.51622ZM15.1466 4.1498C15.1362 4.1498 15.1314 4.14193 15.131 4.14136C15.1304 4.14037 15.13 4.13957 15.1299 4.13917C15.1297 4.13874 15.1296 4.13844 15.1296 4.13835C15.1295 4.13826 15.1298 4.13906 15.1301 4.14137C15.1308 4.14573 15.1315 4.15269 15.1323 4.16233C15.1337 4.18145 15.1351 4.20944 15.1362 4.24446C15.1385 4.3144 15.14 4.41154 15.1402 4.52L15.1787 4.51993C15.1785 4.41122 15.177 4.31366 15.1747 4.2432C15.1735 4.20801 15.1722 4.17936 15.1706 4.15941C15.1699 4.14951 15.1691 4.14131 15.1681 4.1354C15.1677 4.13258 15.1671 4.12947 15.1662 4.12674C15.1658 4.12552 15.165 4.12317 15.1635 4.12076C15.1627 4.11952 15.1575 4.11133 15.1466 4.11133V4.1498Z" fill="#40A083"/>
<ellipse cx="10.3869" cy="31.6532" rx="3.46208" ry="0.989165" fill="black" fill-opacity="0.3"/>
</svg>
