<svg width="246" height="189" viewBox="0 0 246 189" fill="none" xmlns="http://www.w3.org/2000/svg">
<path opacity="0.2" d="M83.9342 186.652C166.398 199.732 231.846 148.677 231.846 88.4535C231.845 56.4041 162.245 59.7904 130.895 51.0984C91.7078 40.2334 76.6491 6.49082 47.4092 8.05245C-22.3399 11.7776 -19.1455 170.303 83.9342 186.652Z" fill="#40A083"/>
<path opacity="0.2" d="M97.9342 178.652C180.398 191.732 245.846 140.677 245.846 80.4535C245.845 48.4041 176.245 51.7904 144.895 43.0984C105.708 32.2334 90.6491 -1.50918 61.4092 0.0524547C-8.33994 3.77759 -5.14549 162.303 97.9342 178.652Z" fill="#40A083"/>
<path d="M106.615 62.9639C124.619 62.9639 139.267 77.6113 139.267 95.6154C139.267 113.619 124.619 128.267 106.615 128.267C88.6113 128.267 73.9639 113.619 73.9639 95.6154C73.9639 77.6113 88.6113 62.9639 106.615 62.9639Z" fill="#B0FEE5"/>
<path d="M77.7963 123.849C62.0674 108.119 62.0678 82.526 77.7963 66.7969C93.5255 51.0677 119.119 51.0677 134.847 66.7969C148.191 80.1409 150.212 99.9869 140.916 115.485C140.916 115.485 140.248 116.605 141.15 117.506C146.295 122.651 161.732 138.088 161.732 138.088C165.828 142.185 166.804 147.913 163.171 151.546L162.545 152.171C158.912 155.805 153.184 154.83 149.088 150.733C149.088 150.733 133.683 135.329 128.549 130.194C127.604 129.249 126.484 129.917 126.484 129.917C110.986 139.213 91.1403 137.193 77.7963 123.849ZM127.4 116.401C139.022 104.778 139.022 85.8678 127.399 74.2456C115.777 62.6237 96.8666 62.6233 85.2447 74.2456C73.6224 85.8675 73.6224 104.778 85.2447 116.401C96.8669 128.022 115.777 128.022 127.4 116.401Z" fill="#40A083"/>
<path d="M124.825 92.9283C125.366 92.9283 125.916 92.822 126.446 92.5981C128.564 91.7019 129.554 89.2589 128.658 87.1412C123.026 73.8308 107.615 67.5844 94.3048 73.2168C92.1874 74.1129 91.1968 76.556 92.0929 78.6737C92.9894 80.7914 95.4318 81.7813 97.5501 80.8855C106.631 77.0428 117.147 81.3048 120.989 90.3859C121.661 91.9742 123.203 92.9283 124.825 92.9283Z" fill="#40A083"/>
</svg>
