<svg width="50" height="50" viewBox="0 0 50 50" fill="none" xmlns="http://www.w3.org/2000/svg">
<circle cx="25" cy="25" r="25" fill="#40A083" fill-opacity="0.1"/>
<path d="M5 13.6667C5 8.8802 8.8802 5 13.6667 5H22.3333V22.3333H5V13.6667Z" fill="#1C737A"/>
<path d="M26.6667 35.3333C26.6667 40.1198 30.5469 44 35.3333 44C40.1198 44 44 40.1198 44 35.3333C44 30.5469 40.1198 26.6667 35.3333 26.6667C30.5469 26.6667 26.6667 30.5469 26.6667 35.3333Z" fill="#1C737A"/>
<path d="M31.0001 35.3334C31.0001 37.7266 32.9402 39.6667 35.3334 39.6667C37.7266 39.6667 39.6667 37.7266 39.6667 35.3334C39.6667 32.9401 37.7266 31 35.3334 31C32.9402 31 31.0001 32.9401 31.0001 35.3334Z" fill="#FCE16C"/>
<path d="M35.3334 5C40.1198 5 44.0001 8.8802 44.0001 13.6667V22.3333H26.6667V5L35.3334 5Z" fill="#40A083"/>
<path d="M13.6667 44C8.8802 44 5 40.1198 5 35.3334L5 26.6667H22.3333V44H13.6667Z" fill="#40A083"/>
</svg>
